<svg width="20" height="20" viewBox="0 0 20 20" fill="none" xmlns="http://www.w3.org/2000/svg">
<g clip-path="url(#clip0_58_1693)">
<path d="M11.6129 9.51752L18.7291 2.40097C18.9248 2.20507 19.0329 1.94371 19.0332 1.66502C19.0332 1.38618 18.9252 1.12451 18.7291 0.92892L18.1055 0.305468C17.9094 0.109101 17.6481 0.0015564 17.3691 0.0015564C17.0905 0.0015564 16.8292 0.109101 16.6331 0.305468L9.51689 7.42155L2.40034 0.305468C2.2046 0.109101 1.94308 0.0015564 1.66424 0.0015564C1.38571 0.0015564 1.12419 0.109101 0.928447 0.305468L0.304531 0.92892C-0.10151 1.33496 -0.10151 1.9954 0.304531 2.40097L7.42092 9.51752L0.304531 16.6337C0.108628 16.83 0.000773706 17.0913 0.000773706 17.37C0.000773706 17.6487 0.108628 17.9101 0.304531 18.1061L0.928292 18.7296C1.12404 18.9258 1.38571 19.0335 1.66409 19.0335C1.94293 19.0335 2.20444 18.9258 2.40019 18.7296L9.51674 11.6133L16.633 18.7296C16.829 18.9258 17.0904 19.0335 17.3689 19.0335H17.3692C17.6479 19.0335 17.9093 18.9258 18.1053 18.7296L18.7289 18.1061C18.9247 17.9102 19.0327 17.6487 19.0327 17.37C19.0327 17.0913 18.9247 16.83 18.7289 16.6339L11.6129 9.51752Z" fill="#ADADAD"/>
</g>
<defs>
<clipPath id="clip0_58_1693">
<rect width="19.0332" height="19.0332" fill="white"/>
</clipPath>
</defs>
</svg>
