<svg width="74" height="22" viewBox="0 0 74 22" fill="none" xmlns="http://www.w3.org/2000/svg">
<g id="Logo_g2a_icon 1" clip-path="url(#clip0_58_2618)">
<path id="Vector" d="M32.4077 8.83488C30.8193 8.83496 29.296 9.4603 28.1729 10.5733C27.0498 11.6864 26.4188 13.196 26.4188 14.77V21.4474H43.2251L45.6089 16.9958H31.1191V15.2112C31.1191 14.7004 31.3239 14.2105 31.6883 13.8493C32.0528 13.4881 32.5471 13.2851 33.0625 13.2851L42.5149 13.2843C44.2026 13.2843 45.8212 12.6199 47.0146 11.4373C48.208 10.2546 48.8784 8.65061 48.8784 6.97809C48.8784 5.30557 48.208 3.70155 47.0146 2.5189C45.8212 1.33625 44.2026 0.671844 42.5149 0.671844L31.2663 0.673856C30.6764 0.673848 30.0923 0.788983 29.5473 1.01269C29.0023 1.23639 28.5071 1.56428 28.09 1.97764C27.6728 2.391 27.3419 2.88173 27.1162 3.42181C26.8904 3.96189 26.7743 4.54075 26.7743 5.12533L42.1874 5.12491C42.6804 5.12089 43.1557 5.30707 43.5127 5.64408C43.8698 5.98109 44.0805 6.4425 44.1004 6.93073C44.1073 7.1781 44.064 7.42433 43.9733 7.65487C43.8825 7.88542 43.7461 8.09561 43.572 8.27306C43.398 8.45051 43.1898 8.59161 42.9599 8.68805C42.7299 8.78448 42.4827 8.83429 42.233 8.83454L32.4077 8.83488Z" fill="black"/>
<path id="Vector_2" d="M10.757 16.9846C9.17133 16.9846 7.65059 16.3603 6.52934 15.2492C5.40809 14.1381 4.77818 12.631 4.77818 11.0596C4.77818 9.48821 5.40809 7.98117 6.52934 6.87002C7.65059 5.75887 9.17133 5.13464 10.757 5.13464L22.8938 5.12533V0.673859L10.4714 0.682576C7.69419 0.682576 5.03076 1.77587 3.06699 3.72194C1.10323 5.66801 0 8.30745 0 11.0596C0 13.8118 1.10323 16.4512 3.06699 18.3973C5.03076 20.3434 7.69419 21.4366 10.4714 21.4366L22.8938 21.447V8.83446L9.41768 8.83479V13.2864L18.1936 13.2863V16.9956L10.757 16.9846Z" fill="white"/>
<path id="Vector_3" d="M60.527 18.921H59.8039C59.4659 18.921 59.1417 19.0541 58.9027 19.2909C58.6637 19.5278 58.5294 19.849 58.5294 20.184C58.5294 20.519 58.6637 20.8402 58.9027 21.0771C59.1417 21.314 59.4659 21.447 59.8039 21.447H60.527C60.8651 21.447 61.1892 21.314 61.4283 21.0771C61.6673 20.8402 61.8015 20.519 61.8015 20.184C61.8015 19.849 61.6673 19.5278 61.4283 19.2909C61.1892 19.0541 60.8651 18.921 60.527 18.921ZM60.5011 20.919H59.8299C59.6332 20.919 59.4446 20.8416 59.3055 20.7038C59.1664 20.5659 59.0883 20.379 59.0883 20.1841C59.0883 19.9892 59.1664 19.8022 59.3055 19.6644C59.4446 19.5266 59.6332 19.4492 59.8299 19.4492H60.5011C60.6978 19.4492 60.8864 19.5266 61.0255 19.6644C61.1646 19.8022 61.2427 19.9892 61.2427 20.1841C61.2427 20.379 61.1646 20.5659 61.0255 20.7038C60.8864 20.8416 60.6978 20.919 60.5011 20.919Z" fill="white"/>
<path id="Vector_4" d="M55.4446 20.184C55.4449 20.5188 55.5793 20.8399 55.8183 21.0767C56.0572 21.3134 56.3811 21.4466 56.719 21.447H58.1761V20.919H56.7451C56.5484 20.919 56.3598 20.8416 56.2207 20.7038C56.0816 20.5659 56.0035 20.379 56.0035 20.1841C56.0035 19.9892 56.0816 19.8022 56.2207 19.6644C56.3598 19.5266 56.5484 19.4492 56.7451 19.4492H58.1761V18.921H56.719C56.3811 18.9214 56.0572 19.0546 55.8183 19.2913C55.5794 19.5281 55.445 19.8491 55.4446 20.184Z" fill="white"/>
<path id="Vector_5" d="M64.6228 18.921L64.0671 20.434L63.5114 18.921H62.8076L61.8628 21.4466H62.4625L63.1595 19.5069L63.7804 21.1976H64.3539L64.9747 19.5069L65.6717 21.4466H66.2706L65.3266 18.921H64.6228Z" fill="white"/>
<path id="Vector_6" d="M54.7872 21.4471C54.9795 21.4471 55.1354 21.2926 55.1354 21.102C55.1354 20.9115 54.9795 20.757 54.7872 20.757C54.595 20.757 54.4391 20.9115 54.4391 21.102C54.4391 21.2926 54.595 21.4471 54.7872 21.4471Z" fill="white"/>
<path id="Vector_7" d="M64.2606 3.06727C63.9145 2.39276 63.4222 1.8024 62.8189 1.3384C62.1126 0.818067 61.2534 0.542002 60.3733 0.552634C59.5134 0.542015 58.6749 0.818826 57.9932 1.3384C57.39 1.8024 56.8977 2.39276 56.5515 3.06727C52.6255 10.479 46.7466 21.4474 46.7466 21.4474H52.1115L60.3733 5.76162L64.256 13.1334H58.278L60.3856 17.1215H66.3566L68.6352 21.4474H73.9999C73.9999 21.4474 68.1866 10.479 64.2606 3.06727Z" fill="white"/>
</g>
<defs>
<clipPath id="clip0_58_2618">
<rect width="74" height="22" fill="white"/>
</clipPath>
</defs>
</svg>
