<svg width="148" height="49" viewBox="0 0 148 49" fill="none" xmlns="http://www.w3.org/2000/svg">
<path d="M41.7145 23.7136C39.5484 20.6933 39.2375 17.2394 36.2172 14.8561C36.4228 15.5149 36.6504 16.5903 36.8805 17.765C35.4217 16.3529 32.9472 16.491 31.5717 16.491C30.1962 16.491 27.7217 16.3529 26.2629 17.765C26.493 16.5927 26.7206 15.5149 26.9262 14.8561C23.9059 17.2419 23.5951 20.6957 21.429 23.7136C17.9142 28.6135 19.2898 34.5136 22.4031 37.3039C22.4006 37.2627 22.3982 37.2215 22.3933 37.1803C22.4716 37.4928 23.1423 36.4295 23.2059 36.5894C24.5202 39.8543 28.4559 41.0871 31.5717 41.0871C34.6875 41.0871 38.6232 39.8543 39.9375 36.5894C40.0012 36.4295 40.6718 37.4904 40.7501 37.1803C40.7477 37.2215 40.7452 37.2627 40.7403 37.3039C43.8536 34.5112 45.2292 28.6135 41.7145 23.7136Z" fill="white"/>
<path d="M41.1148 23.7112C40.662 23.1202 39.9498 21.9479 38.7676 18.712C38.7676 18.712 36.4228 12.7295 31.8189 12.9984H31.3172C26.7157 12.7295 24.3685 18.712 24.3685 18.712C23.1888 21.9479 22.4741 23.1202 22.0213 23.7112C19.6447 26.8211 18.3132 32.7722 22.687 37.8415C23.3576 38.619 23.7101 37.9481 23.3576 37.0641C21.4583 32.2829 24.464 26.562 25.5066 24.9755C26.0206 24.1932 26.1626 23.0839 25.9839 22.1683C25.0465 17.3872 28.0692 17.0142 28.0692 17.0142C31.0479 16.7453 31.0479 20.5867 31.0479 20.5867L31.5693 20.7877L32.0906 20.5867C32.0906 20.5867 32.0906 16.7477 35.0693 17.0142C35.0693 17.0142 38.0896 17.3872 37.1546 22.1683C36.976 23.0839 37.1179 24.1932 37.6319 24.9755C38.6746 26.562 41.6777 32.2829 39.7809 37.0641C39.4309 37.9481 39.7809 38.619 40.4515 37.8415C44.8253 32.7722 43.4938 26.8211 41.1173 23.7112H41.1148Z" fill="black"/>
<g clip-path="url(#clip0_58_1964)">
<path d="M35.1576 19.3676C34.6896 19.1516 34.1307 19.3094 33.777 19.7203C33.6577 19.8587 33.7158 20.0707 33.8747 20.1131C34.0828 20.1701 34.3728 20.2607 34.6717 20.3986C34.9707 20.5366 35.2263 20.6957 35.4034 20.8186C35.5478 20.9181 35.7462 20.806 35.7755 20.6158C35.8555 20.093 35.6188 19.5804 35.1576 19.3676Z" fill="black"/>
</g>
<g clip-path="url(#clip1_58_1964)">
<path d="M27.9885 19.3676C28.4565 19.1516 29.0154 19.3094 29.3691 19.7203C29.4884 19.8587 29.4303 20.0707 29.2714 20.1131C29.0633 20.1701 28.7733 20.2607 28.4744 20.3986C28.1755 20.5366 27.9198 20.6957 27.7427 20.8186C27.5983 20.9181 27.3999 20.806 27.3706 20.6158C27.2906 20.093 27.5273 19.5804 27.9885 19.3676Z" fill="black"/>
</g>
<path d="M35.3727 12.1773L34.0461 13.4925L32.6681 12.1289L34.2517 9.73828L35.3727 12.1773Z" fill="#F26621"/>
<path d="M27.7706 12.1773L29.0972 13.4925L30.4752 12.1289L28.8916 9.73828L27.7706 12.1773Z" fill="#F26621"/>
<path d="M31.5717 15.498C28.6052 15.498 27.0021 14.7884 27.0021 14.7884L26.5248 9.81101L29.3346 12.2452L31.5717 8.50793C31.5717 8.50793 31.5717 11.4047 31.5717 15.5005V15.498Z" fill="#FFDD00"/>
<path d="M33.8086 12.2427L31.5716 8.50543L29.3345 12.2427L26.5247 9.80851L27.0044 14.7859C27.0044 14.7859 28.6051 15.4955 31.574 15.4955C34.5429 15.4955 36.1436 14.7859 36.1436 14.7859L36.6209 9.80851L33.8111 12.2427H33.8086Z" fill="#FFDD00"/>
<path d="M33.8086 12.2427L31.5716 8.50543L29.3345 12.2427L26.5247 9.80851L27.0044 14.7859C27.0044 14.7859 28.6051 15.4955 31.574 15.4955C34.5429 15.4955 36.1436 14.7859 36.1436 14.7859L36.6209 9.80851L33.8111 12.2427H33.8086Z" fill="#FFC20D"/>
<path d="M33.8086 12.2427L31.5716 8.50543L29.3345 12.2427L26.5247 9.80851L26.9114 13.8413C29.8142 16.0599 33.8086 12.2427 33.8086 12.2427Z" fill="#FFDE00"/>
<path d="M31.5719 21.6767L30.1376 21.759L30.9844 22.7932C31.1362 22.9773 31.354 23.0694 31.5719 23.0694C31.7897 23.0694 32.0075 22.9773 32.1593 22.7932L33.0061 21.759L31.5719 21.6767Z" fill="#D94726"/>
<path d="M33.3241 21.2528L32.2913 19.9933C32.1052 19.7681 31.8385 19.6542 31.5717 19.6542C31.3049 19.6542 31.0381 19.7681 30.8521 19.9933L29.8192 21.2528C29.6405 21.4708 29.7703 21.8632 30.1839 21.8171C30.4605 21.7857 30.9329 21.7106 31.5717 21.7106C32.2105 21.7106 32.6804 21.7857 32.9594 21.8171C33.3706 21.8632 33.5028 21.4708 33.3241 21.2528Z" fill="#F26621"/>
<path d="M64.3768 19.5923C64.3768 18.9518 63.8562 18.4502 63.1927 18.4502C62.6859 18.4502 62.4003 18.7352 62.2206 18.97L58.2536 23.3515L56.0744 23.3219V19.5764C56.0744 18.929 55.5606 18.4206 54.9064 18.4206C54.2521 18.4206 53.7223 18.929 53.7223 19.5764V28.6974C53.7223 29.3471 54.2429 29.8532 54.9064 29.8532C55.5698 29.8532 56.0744 29.3448 56.0744 28.6974V25.401L57.8182 25.4306C57.8482 25.4306 58.537 25.4238 58.5646 25.4215L62.1123 29.4588C62.3888 29.7529 62.6836 29.8828 63.066 29.8828C63.6857 29.8828 64.1718 29.4018 64.1718 28.7886C64.1718 28.4557 64.0405 28.1799 63.7733 27.936L60.4836 24.2634L64.0658 20.4016C64.2156 20.2079 64.3768 19.9708 64.3768 19.5923Z" fill="white"/>
<path d="M68.1548 18.4525C67.4913 18.4525 66.9707 18.9609 66.9707 19.6083V28.7293C66.9707 29.379 67.4913 29.8851 68.1548 29.8851C68.8183 29.8851 69.3228 29.3767 69.3228 28.7293V19.6083C69.3228 18.9609 68.809 18.4525 68.1548 18.4525Z" fill="white"/>
<path d="M94.7623 23.2809H93.1105C92.5185 23.2809 92.037 23.7505 92.037 24.3295C92.037 24.9086 92.5185 25.3622 93.1105 25.3622H93.6565V27.0766C92.9907 27.5348 92.1107 27.7969 91.2192 27.7969C89.1482 27.7969 87.7015 26.3835 87.7015 24.1928C87.7015 22.1958 89.2035 20.5703 91.0464 20.5703C92.0554 20.5703 92.7903 20.8051 93.5897 21.3865C93.7717 21.5119 93.9998 21.6418 94.3061 21.6418C94.9512 21.6418 95.4741 21.1243 95.4741 20.486C95.4741 19.9525 95.1401 19.6494 94.9926 19.5399C93.8684 18.7398 92.712 18.4001 91.1225 18.4001C87.8305 18.4001 85.2504 20.9579 85.2504 24.2566C85.2504 27.5553 87.7337 29.9558 91.1524 29.9558C92.9562 29.9558 94.3338 29.2947 95.1677 28.7453C95.6884 28.4261 95.9418 27.9702 95.9418 27.3569V24.4572C95.9418 23.8007 95.4211 23.2854 94.7577 23.2854L94.7623 23.2809Z" fill="white"/>
<path d="M107.543 18.4525C106.88 18.4525 106.359 18.9609 106.359 19.6083V24.9108C106.359 26.7164 105.454 27.7103 103.814 27.7103C102.173 27.7103 101.252 26.689 101.252 24.8333V19.6083C101.252 18.9609 100.738 18.4525 100.084 18.4525C99.4296 18.4525 98.8998 18.9609 98.8998 19.6083V24.9108C98.8998 28.0796 100.681 29.8988 103.784 29.8988C106.887 29.8988 108.713 28.0477 108.713 24.8174V19.6083C108.713 18.9609 108.2 18.4525 107.546 18.4525H107.543Z" fill="white"/>
<path d="M119.357 29.8965C120.02 29.8965 120.541 29.3881 120.541 28.7407V23.4382C120.541 21.6327 121.446 20.6387 123.086 20.6387C124.726 20.6387 125.648 21.66 125.648 23.5157V28.7407C125.648 29.3881 126.162 29.8965 126.816 29.8965C127.47 29.8965 128 29.3881 128 28.7407V23.4382C128 20.2694 126.219 18.4502 123.116 18.4502C120.013 18.4502 118.186 20.3013 118.186 23.5316V28.7407C118.186 29.3881 118.7 29.8965 119.354 29.8965H119.357Z" fill="white"/>
<path d="M74.0223 29.876C74.6858 29.876 75.2064 29.3676 75.2064 28.7202V23.4405C75.2064 21.6349 76.1118 20.641 77.752 20.641C79.3922 20.641 80.3137 21.6623 80.3137 23.518V28.743C80.3137 29.3904 80.8274 29.8988 81.4817 29.8988C82.1359 29.8988 82.6657 29.3904 82.6657 28.743V23.4405C82.6657 20.2717 80.885 18.4525 77.7819 18.4525C74.6789 18.4525 72.8521 20.3036 72.8521 23.5339V28.7202C72.8521 29.3676 73.3658 29.876 74.02 29.876H74.0223Z" fill="white"/>
<path d="M113.524 18.4525C112.86 18.4525 112.34 18.9609 112.34 19.6083V28.7293C112.34 29.379 112.86 29.8851 113.524 29.8851C114.187 29.8851 114.692 29.3767 114.692 28.7293V19.6083C114.692 18.9609 114.178 18.4525 113.524 18.4525Z" fill="white"/>
<defs>
<clipPath id="clip0_58_1964">
<rect width="2.21222" height="1.21827" fill="white" transform="matrix(0.90799 0.418991 -0.426263 0.904599 34.1516 18.9034)"/>
</clipPath>
<clipPath id="clip1_58_1964">
<rect width="2.21222" height="1.21827" fill="white" transform="matrix(-0.90799 0.418991 0.426263 0.904599 28.9945 18.9034)"/>
</clipPath>
</defs>
</svg>
