<svg width="20" height="20" viewBox="0 0 20 20" fill="none" xmlns="http://www.w3.org/2000/svg">
<g id="Frame" clip-path="url(#clip0_58_1092)">
<path id="Vector" d="M17.0833 0.25415H2.91667C2.14547 0.261749 1.40801 0.571479 0.862672 1.11682C0.317329 1.66216 0.00759852 2.39962 0 3.17082L0 14.0042C0.0293569 14.8016 0.312353 15.5689 0.807833 16.1945C1.30331 16.8201 1.98544 17.2713 2.755 17.4825L12.0542 19.6667C12.4081 19.7583 12.7781 19.7692 13.1368 19.6987C13.4955 19.6282 13.8338 19.4779 14.1267 19.2591C14.4099 19.0273 14.636 18.7334 14.7874 18.4002C14.9388 18.0669 15.0116 17.7033 15 17.3375V9.26082C14.9987 8.48578 14.744 7.73244 14.2747 7.1156C13.8055 6.49877 13.1474 6.05227 12.4008 5.84415L3.38 3.35665C3.30088 3.33476 3.22684 3.29751 3.16212 3.24701C3.0974 3.19651 3.04325 3.13375 3.00278 3.06233C2.96231 2.99091 2.93631 2.91221 2.92625 2.83074C2.91619 2.74926 2.92228 2.6666 2.94417 2.58748C2.96605 2.50836 3.00331 2.43433 3.05381 2.3696C3.10431 2.30488 3.16706 2.25074 3.23849 2.21027C3.30991 2.1698 3.38861 2.14379 3.47008 2.13373C3.55155 2.12367 3.63421 2.12976 3.71333 2.15165L6.65833 2.96415H6.66833H17.0833C17.2491 2.96415 17.4081 3.03 17.5253 3.14721C17.6425 3.26442 17.7083 3.42339 17.7083 3.58915C17.7083 3.75491 17.6425 3.91388 17.5253 4.03109C17.4081 4.1483 17.2491 4.21415 17.0833 4.21415H12.7208C12.6704 4.21404 12.6216 4.23225 12.5836 4.26538C12.5455 4.29852 12.5208 4.34433 12.514 4.39432C12.5072 4.4443 12.5187 4.49507 12.5465 4.53718C12.5743 4.5793 12.6164 4.6099 12.665 4.62332L12.7367 4.64332C13.686 4.90697 14.5303 5.45838 15.1533 6.22165C15.1731 6.24531 15.1979 6.26435 15.2258 6.27745C15.2537 6.29055 15.2842 6.29739 15.315 6.29748H17.0833C17.2491 6.29748 17.4081 6.36333 17.5253 6.48054C17.6425 6.59775 17.7083 6.75672 17.7083 6.92248C17.7083 7.08824 17.6425 7.24721 17.5253 7.36442C17.4081 7.48164 17.2491 7.54748 17.0833 7.54748H16.2183C16.1854 7.54728 16.1529 7.55492 16.1235 7.56977C16.0941 7.58461 16.0687 7.60625 16.0493 7.63287C16.0299 7.6595 16.0171 7.69036 16.0121 7.72289C16.007 7.75543 16.0097 7.78871 16.02 7.81998C16.1732 8.28556 16.2522 8.77235 16.2542 9.26248V15.0475C16.2542 15.1027 16.2761 15.1557 16.3152 15.1948C16.3543 15.2339 16.4072 15.2558 16.4625 15.2558H17.0833C17.8569 15.2558 18.5987 14.9485 19.1457 14.4015C19.6927 13.8546 20 13.1127 20 12.3392V3.17248C20.0002 2.78932 19.9249 2.40987 19.7785 2.05581C19.632 1.70175 19.4172 1.38003 19.1463 1.10901C18.8755 0.837997 18.5539 0.623008 18.1999 0.476328C17.8459 0.329647 17.4665 0.25415 17.0833 0.25415ZM12.9167 12.7542C12.9167 13.0838 12.8189 13.406 12.6358 13.6801C12.4526 13.9542 12.1923 14.1678 11.8878 14.2939C11.5833 14.4201 11.2482 14.4531 10.9248 14.3888C10.6015 14.3245 10.3046 14.1657 10.0715 13.9327C9.8384 13.6996 9.67967 13.4026 9.61536 13.0793C9.55105 12.756 9.58405 12.4209 9.7102 12.1163C9.83635 11.8118 10.05 11.5515 10.324 11.3684C10.5981 11.1852 10.9204 11.0875 11.25 11.0875C11.692 11.0875 12.1159 11.2631 12.4285 11.5756C12.7411 11.8882 12.9167 12.3121 12.9167 12.7542Z" fill="white"/>
</g>
<defs>
<clipPath id="clip0_58_1092">
<rect width="20" height="20" fill="white"/>
</clipPath>
</defs>
</svg>
