<svg width="29" height="29" viewBox="0 0 29 29" fill="none" xmlns="http://www.w3.org/2000/svg">
<g clip-path="url(#clip0_58_1710)">
<path d="M24.7708 0.36853H4.22917C3.11094 0.379548 2.04162 0.828657 1.25087 1.6194C0.460127 2.41015 0.0110179 3.47947 0 4.5977L0 20.306C0.0425676 21.4624 0.452912 22.575 1.17136 23.4821C1.8898 24.3891 2.87888 25.0434 3.99475 25.3496L17.4785 28.5167C17.9917 28.6495 18.5282 28.6654 19.0483 28.5631C19.5685 28.4608 20.059 28.243 20.4837 27.9258C20.8943 27.5896 21.2222 27.1634 21.4417 26.6802C21.6613 26.1971 21.7668 25.6698 21.75 25.1394V13.4282C21.7481 12.3044 21.3787 11.2121 20.6983 10.3176C20.0179 9.42323 19.0637 8.7758 17.9812 8.47403L4.901 4.86716C4.78627 4.83542 4.67892 4.7814 4.58507 4.70817C4.49123 4.63495 4.41272 4.54396 4.35404 4.44039C4.29535 4.33683 4.25764 4.22272 4.24306 4.10458C4.22848 3.98644 4.23731 3.86659 4.26904 3.75186C4.30078 3.63714 4.3548 3.52979 4.42802 3.43594C4.50125 3.34209 4.59224 3.26358 4.6958 3.2049C4.79937 3.14622 4.91348 3.10851 5.03162 3.09392C5.14975 3.07934 5.26961 3.08817 5.38433 3.11991L9.65458 4.29803H9.66908H24.7708C25.0112 4.29803 25.2417 4.39351 25.4116 4.56347C25.5816 4.73342 25.6771 4.96393 25.6771 5.20428C25.6771 5.44463 25.5816 5.67514 25.4116 5.8451C25.2417 6.01505 25.0112 6.11053 24.7708 6.11053H18.4452C18.3721 6.11038 18.3013 6.13677 18.2462 6.18482C18.191 6.23286 18.1552 6.29929 18.1453 6.37177C18.1354 6.44425 18.1521 6.51786 18.1924 6.57893C18.2327 6.63999 18.2937 6.68437 18.3643 6.70382L18.4682 6.73282C19.8447 7.11512 21.0689 7.91467 21.9723 9.02141C22.001 9.05571 22.0369 9.08332 22.0774 9.10231C22.1179 9.12131 22.162 9.13122 22.2068 9.13136H24.7708C25.0112 9.13136 25.2417 9.22684 25.4116 9.3968C25.5816 9.56675 25.6771 9.79726 25.6771 10.0376C25.6771 10.278 25.5816 10.5085 25.4116 10.6784C25.2417 10.8484 25.0112 10.9439 24.7708 10.9439H23.5166C23.4688 10.9436 23.4217 10.9546 23.3791 10.9762C23.3365 10.9977 23.2996 11.0291 23.2715 11.0677C23.2434 11.1063 23.2249 11.151 23.2175 11.1982C23.2101 11.2454 23.214 11.2936 23.229 11.339C23.4511 12.0141 23.5657 12.7199 23.5685 13.4306V21.8189C23.5685 21.899 23.6004 21.9758 23.657 22.0325C23.7137 22.0891 23.7905 22.1209 23.8706 22.1209H24.7708C25.8925 22.1209 26.9682 21.6754 27.7613 20.8823C28.5544 20.0891 29 19.0134 29 17.8918V4.60011C29.0003 4.04453 28.8912 3.49432 28.6788 2.98094C28.4664 2.46755 28.1549 2.00105 27.7622 1.60808C27.3694 1.21511 26.9031 0.903374 26.3898 0.690687C25.8766 0.478001 25.3264 0.36853 24.7708 0.36853ZM18.7292 18.4935C18.7292 18.9715 18.5874 19.4387 18.3219 19.8362C18.0563 20.2336 17.6789 20.5433 17.2373 20.7262C16.7957 20.9092 16.3098 20.957 15.841 20.8638C15.3722 20.7705 14.9416 20.5403 14.6037 20.2024C14.2657 19.8644 14.0355 19.4338 13.9423 18.965C13.849 18.4962 13.8969 18.0103 14.0798 17.5687C14.2627 17.1271 14.5725 16.7497 14.9699 16.4841C15.3673 16.2186 15.8345 16.0769 16.3125 16.0769C16.9534 16.0769 17.5681 16.3315 18.0213 16.7847C18.4746 17.2379 18.7292 17.8526 18.7292 18.4935Z" fill="url(#paint0_linear_58_1710)"/>
</g>
<defs>
<linearGradient id="paint0_linear_58_1710" x1="22.765" y1="36.578" x2="-16.384" y2="15.9777" gradientUnits="userSpaceOnUse">
<stop stop-color="#FABE00"/>
<stop offset="1" stop-color="#F8661F"/>
</linearGradient>
<clipPath id="clip0_58_1710">
<rect width="29" height="29" fill="white"/>
</clipPath>
</defs>
</svg>
