<svg width="12" height="12" viewBox="0 0 12 12" fill="none" xmlns="http://www.w3.org/2000/svg">
<path fill-rule="evenodd" clip-rule="evenodd" d="M0.350006 6.00001C0.350006 5.64102 0.641021 5.35001 1.00001 5.35001H11C11.359 5.35001 11.65 5.64102 11.65 6.00001C11.65 6.35899 11.359 6.65001 11 6.65001H1.00001C0.641021 6.65001 0.350006 6.35899 0.350006 6.00001Z" fill="#ADADAD"/>
<path fill-rule="evenodd" clip-rule="evenodd" d="M6.45963 0.540387C6.71347 0.794227 6.71347 1.20578 6.45963 1.45963L1.91924 6.00001L6.45963 10.5404C6.71347 10.7942 6.71347 11.2058 6.45963 11.4596C6.20578 11.7135 5.79423 11.7135 5.54039 11.4596L0.540387 6.45963C0.286546 6.20578 0.286546 5.79423 0.540387 5.54039L5.54039 0.540387C5.79423 0.286546 6.20578 0.286546 6.45963 0.540387Z" fill="#ADADAD"/>
</svg>
