<svg width="18" height="18" viewBox="0 0 18 18" fill="none" xmlns="http://www.w3.org/2000/svg">
<g clip-path="url(#clip0_58_1001)">
<path fill-rule="evenodd" clip-rule="evenodd" d="M9 2.14998C5.21685 2.14998 2.15 5.21682 2.15 8.99998C2.15 12.7831 5.21685 15.85 9 15.85C12.7832 15.85 15.85 12.7831 15.85 8.99998C15.85 5.21682 12.7832 2.14998 9 2.14998ZM0.85 8.99998C0.85 4.49885 4.49888 0.849976 9 0.849976C13.5011 0.849976 17.15 4.49885 17.15 8.99998C17.15 13.5011 13.5011 17.15 9 17.15C4.49888 17.15 0.85 13.5011 0.85 8.99998Z" fill="#CACBCC" fill-opacity="0.5"/>
<path fill-rule="evenodd" clip-rule="evenodd" d="M9 5.34998C9.35899 5.34998 9.65 5.64099 9.65 5.99998V8.99998C9.65 9.35896 9.35899 9.64998 9 9.64998C8.64102 9.64998 8.35 9.35896 8.35 8.99998V5.99998C8.35 5.64099 8.64102 5.34998 9 5.34998Z" fill="#CACBCC" fill-opacity="0.5"/>
<path fill-rule="evenodd" clip-rule="evenodd" d="M8.35 12C8.35 11.641 8.64102 11.35 9 11.35H9.00625C9.36524 11.35 9.65625 11.641 9.65625 12C9.65625 12.359 9.36524 12.65 9.00625 12.65H9C8.64102 12.65 8.35 12.359 8.35 12Z" fill="#CACBCC" fill-opacity="0.5"/>
</g>
<defs>
<clipPath id="clip0_58_1001">
<rect width="18" height="18" fill="white"/>
</clipPath>
</defs>
</svg>
