<svg width="50" height="31" viewBox="0 0 50 31" fill="none" xmlns="http://www.w3.org/2000/svg">
<g clip-path="url(#clip0_58_2064)">
<path d="M2.63041 17H0V29.0867H9.95057V26.7212H2.63041V17Z" fill="white"/>
<path d="M19.943 17.0172H15.5302L11.2039 29.0867H13.9208L14.6477 27.101H20.8256L21.5351 29.0867H24.2694L19.943 17.0172ZM15.4956 24.701L17.3992 19.4001H18.0741L19.9603 24.701H15.4956Z" fill="white"/>
<path d="M34.762 25.6852H34.4506L29.1551 17.0173H28.9128V17H25.3652V29.0867H27.9956V20.4188H28.2898L33.6026 29.0867H37.3924V17H34.762V25.6852Z" fill="white"/>
<path d="M44.2449 17H39.0361V29.0867C39.6077 29.0867 43.6045 29.0867 44.2449 29.0867C49.2984 29.0867 50.2158 25.3916 50.2158 23.0606C50.2158 20.7296 49.3672 17 44.2449 17ZM44.2449 26.7039C43.0338 26.7039 42.1341 26.7039 41.6665 26.7039V19.4001C41.6665 19.4001 43.1379 19.4001 44.2449 19.4001C46.9618 19.4001 47.4813 21.6966 47.4813 23.0606C47.4813 24.3557 46.945 26.7039 44.2449 26.7039Z" fill="white"/>
<path d="M5.20889 2.51021H0V14.5969C0.571075 14.5969 4.5686 14.5969 5.20889 14.5969C10.262 14.5969 11.1792 10.9018 11.1792 8.57085C11.1792 6.23984 10.3313 2.51021 5.20889 2.51021ZM5.20889 12.2141C3.99753 12.2141 3.09765 12.2141 2.6304 12.2141V4.9103C2.6304 4.9103 4.10136 4.9103 5.20889 4.9103C7.92583 4.9103 8.44499 7.20678 8.44499 8.57085C8.44499 9.8659 7.90852 12.2141 5.20889 12.2141Z" fill="white"/>
<path d="M23.2642 6.55064C23.2642 2.51021 20.0281 2.51021 18.5744 2.51021C17.8649 2.51021 15.944 2.52748 15.3037 2.52748V2.51021H12.6733V14.5969H15.3037V10.5738C15.8402 10.5738 17.6399 10.5738 18.0899 10.5738C18.2457 10.5738 18.4706 10.5738 18.7302 10.5738L20.703 14.5969H23.5583L21.2394 9.96949C22.3297 9.39968 23.2642 8.63992 23.2642 6.55064ZM18.3668 8.22552C18.1418 8.22552 15.8748 8.22552 15.3037 8.22552V4.87576C15.996 4.87576 17.9341 4.87576 18.4186 4.87576C19.232 4.87576 20.8241 4.87576 20.8241 6.55064C20.8241 8.24278 19.1282 8.22552 18.3668 8.22552Z" fill="white"/>
<path d="M43.929 2.51021C43.2194 2.51021 41.7831 2.52748 41.1428 2.52748V2.51021H38.5124V14.5969H41.1428V11.23C41.6793 11.23 43.479 11.23 43.929 11.23C45.0711 11.23 49.1032 11.3853 49.1032 6.87871C49.1032 2.52748 45.3826 2.51021 43.929 2.51021ZM44.0154 8.95072C43.7905 8.95072 41.7312 8.95072 41.1428 8.95072V4.78943C41.8523 4.78943 43.5829 4.78943 44.0674 4.78943C44.9499 4.78943 46.6286 4.78943 46.6286 6.87871C46.6286 9.05431 44.725 8.95072 44.0154 8.95072Z" fill="white"/>
<path fill-rule="evenodd" clip-rule="evenodd" d="M28.4859 10.3195C28.436 11.5731 29.3451 14.2864 33.2114 14.1517C32.2967 14.679 28.483 15.3984 26.0907 12.4132C25.9974 12.4473 25.9834 12.4422 25.988 12.4355L25.7706 12.0815L25.4734 12.0563C25.4163 11.9499 25.3036 11.7092 25.3107 11.597C25.3137 11.5485 25.3452 11.4628 25.3833 11.3587C25.4552 11.1626 25.5513 10.9009 25.5264 10.6984C25.4885 10.3884 25.4046 10.0435 25.0415 9.85956C24.9175 9.82292 24.72 9.6885 24.6367 9.62588C24.6148 9.44002 24.3713 7.09734 25.5023 5.30478C25.9105 4.65785 26.7466 3.86401 27.3967 3.45445C27.4653 3.41132 27.5533 3.42474 27.605 3.48701C27.6074 3.48992 27.6099 3.49284 27.6122 3.49577C27.7196 3.6253 27.8476 3.77975 28.0502 3.85237C28.2833 3.96458 28.4946 4.16343 28.6673 4.46213C28.793 4.67951 29.093 5.8524 27.6801 6.38433C27.5731 6.4214 27.0306 6.77106 27.5353 7.26658C27.3587 7.40527 26.7025 7.98022 27.453 8.56761C27.4419 8.58134 27.4243 8.60009 27.4027 8.62317C27.2061 8.83313 26.6738 9.40179 27.5803 9.80926C27.7106 9.85701 28.2471 9.9287 28.3925 9.86942C28.4755 9.87075 28.5368 9.89691 28.557 9.90977L28.5895 10.3212L28.4859 10.3195ZM26.9124 4.20596C26.4307 4.4837 26.3227 5.16517 26.5917 5.63054C26.8857 6.13903 27.4386 6.22707 27.9204 5.94933C28.4022 5.6716 28.5409 4.91363 28.2439 4.46494C27.9749 3.99957 27.3942 3.92822 26.9124 4.20596Z" fill="white"/>
<path fill-rule="evenodd" clip-rule="evenodd" d="M33.2241 6.66267C33.2739 5.40906 32.3648 2.69572 28.4985 2.83055C29.4133 2.30315 33.2269 1.58376 35.6193 4.569C35.7125 4.5349 35.7265 4.53992 35.7219 4.54669L35.9394 4.90062L36.2365 4.92596C36.2936 5.03227 36.4063 5.27294 36.3992 5.38514C36.3962 5.43375 36.3648 5.51938 36.3266 5.62344C36.2547 5.81962 36.1587 6.0813 36.1835 6.28382C36.2214 6.59375 36.3053 6.93867 36.6684 7.12259C36.7924 7.15929 36.9899 7.29367 37.0732 7.35627C37.0952 7.5422 37.3387 9.88484 36.2076 11.6774C35.7995 12.3243 34.9633 13.1182 34.3132 13.5277C34.2447 13.5708 34.1566 13.5575 34.105 13.4952C34.1025 13.4923 34.1001 13.4894 34.0977 13.4864C33.9903 13.3569 33.8623 13.2024 33.6597 13.1298C33.4266 13.0176 33.2153 12.8187 33.0427 12.52C32.917 12.3026 32.617 11.1298 34.0299 10.5979C34.1368 10.5608 34.6794 10.2111 34.1746 9.71554C34.3512 9.5769 35.0074 9.00198 34.257 8.41456C34.2681 8.40084 34.2856 8.38208 34.3073 8.35901C34.5038 8.14902 35.0362 7.5804 34.1297 7.17293C33.9993 7.12517 33.4629 7.05346 33.3174 7.11275C33.2344 7.11141 33.1731 7.08531 33.1529 7.07242L33.1204 6.661L33.2241 6.66267ZM34.7975 12.7762C35.2793 12.4984 35.3873 11.817 35.1182 11.3516C34.8242 10.8432 34.2714 10.7551 33.7896 11.0328C33.3078 11.3105 33.1691 12.0686 33.466 12.5172C33.735 12.9826 34.3158 13.054 34.7975 12.7762Z" fill="#FFA216"/>
</g>
<defs>
<clipPath id="clip0_58_2064">
<rect width="50" height="31" fill="white"/>
</clipPath>
</defs>
</svg>
