<svg width="50" height="50" viewBox="0 0 50 50" fill="none" xmlns="http://www.w3.org/2000/svg">
<path d="M49.1378 41.3461H0.862108C0.386034 41.3461 0 40.9609 0 40.4858V9.5142C0 9.03909 0.386034 8.65384 0.862108 8.65384H49.1379C49.614 8.65384 50 9.03909 50 9.5142V40.4858C49.9999 40.961 49.6139 41.3461 49.1378 41.3461Z" fill="#41479B"/>
<path d="M24.1378 8.65384H22.6403L14.655 13.8751V8.65384H10.3447V13.8751L2.35937 8.65384H0.862106C0.386034 8.65384 0 9.039 0 9.51411V10.1965L6.85105 14.676H0V18.9776H6.85105L0 23.4572V24.1396C0 24.6147 0.386034 25 0.862106 25H2.35956L10.3449 19.7787V25H14.6552V19.7787L22.6404 25H24.1379C24.614 25 25 24.6147 25 24.1396V23.4572L18.149 18.9777H24.9999V14.6761H18.1489L24.9999 10.1966V9.5142C24.9999 9.039 24.6139 8.65384 24.1378 8.65384Z" fill="#F5F5F5"/>
<path d="M25 15.5365H13.7931V8.65384H11.2069V15.5365H0V18.1174H11.2069V25H13.7931V18.1174H25V15.5365Z" fill="#FF4B55"/>
<path d="M9.61539 14.4231L0.416588 8.65384C0.171804 8.80347 0 9.055 0 9.35561V9.39943L8.00983 14.4231H9.61539Z" fill="#FF4B55"/>
<path d="M16.0628 14.4231L25 9.06716C24.8447 8.82451 24.5706 8.65384 24.2431 8.65384H24.05L14.4231 14.4231H16.0628Z" fill="#FF4B55"/>
<path d="M8.93447 19.2308L0 24.5764C0.154065 24.8249 0.432821 25 0.765667 25H0.934318L10.5769 19.2308H8.93447Z" fill="#FF4B55"/>
<path d="M25 24.311L16.9613 19.2308H15.3846L24.5132 25C24.7867 24.8764 24.9743 24.6175 25 24.311Z" fill="#FF4B55"/>
<path d="M12.6816 29.9457L13.3191 32.1016L15.3621 31.268C15.5364 31.1968 15.6948 31.4005 15.5884 31.5587L14.3404 33.4134L16.2503 34.5298C16.4132 34.6251 16.3567 34.8789 16.1696 34.8924L13.9758 35.0493L14.3146 37.2751C14.3435 37.465 14.1144 37.578 13.9876 37.4364L12.5 35.7773L11.0125 37.4364C10.8856 37.5779 10.6566 37.4649 10.6854 37.2751L11.0242 35.0493L8.83049 34.8924C8.64335 34.8789 8.58681 34.6251 8.74974 34.5298L10.6596 33.4134L9.41162 31.5587C9.30523 31.4005 9.46367 31.1968 9.63799 31.268L11.6809 32.1016L12.3184 29.9457C12.3731 29.7617 12.6273 29.7617 12.6816 29.9457Z" fill="#F5F5F5"/>
<path d="M38.5525 14.4921L38.8712 15.57L39.8926 15.1533C39.9796 15.1177 40.059 15.2195 40.0057 15.2986L39.3818 16.226L40.3367 16.7843C40.4182 16.8319 40.3899 16.9589 40.2962 16.9655L39.1995 17.0439L39.3688 18.1568C39.3833 18.2518 39.2687 18.3082 39.2053 18.2374L38.4615 17.4079L37.7178 18.2374C37.6543 18.3081 37.5399 18.2517 37.5543 18.1568L37.7236 17.0439L36.6268 16.9655C36.5332 16.9589 36.5049 16.8319 36.5864 16.7843L37.5412 16.226L36.9174 15.2986C36.8641 15.2195 36.9434 15.1177 37.0305 15.1533L38.0518 15.57L38.3706 14.4921C38.3982 14.4001 38.5254 14.4001 38.5525 14.4921Z" fill="#F5F5F5"/>
<path d="M30.8602 22.1843L31.179 23.2623L32.2003 22.8455C32.2874 22.81 32.3667 22.9118 32.3134 22.9909L31.6896 23.9183L32.6444 24.4766C32.7259 24.5242 32.6976 24.6512 32.604 24.6578L31.5072 24.7362L31.6765 25.849C31.691 25.944 31.5765 26.0005 31.513 25.9297L30.7693 25.1002L30.0255 25.9297C29.9621 26.0004 29.8476 25.9439 29.862 25.849L30.0313 24.7362L28.9346 24.6578C28.8409 24.6512 28.8126 24.5242 28.8941 24.4766L29.849 23.9183L29.2251 22.9909C29.1718 22.9118 29.2511 22.81 29.3382 22.8455L30.3596 23.2623L30.6783 22.1843C30.7059 22.0924 30.833 22.0924 30.8602 22.1843Z" fill="#F5F5F5"/>
<path d="M45.2833 19.2998L45.602 20.3777L46.6234 19.961C46.7105 19.9254 46.7898 20.0272 46.7365 20.1063L46.1126 21.0338L47.0675 21.592C47.149 21.6396 47.1207 21.7666 47.0271 21.7732L45.9303 21.8516L46.0996 22.9645C46.1141 23.0595 45.9995 23.1159 45.9362 23.0451L45.1924 22.2156L44.4487 23.0451C44.3852 23.1158 44.2707 23.0594 44.2851 22.9645L44.4544 21.8516L43.3577 21.7732C43.264 21.7666 43.2357 21.6396 43.3172 21.592L44.2721 21.0338L43.6482 20.1063C43.5949 20.0272 43.6743 19.9254 43.7613 19.961L44.7827 20.3777L45.1014 19.2998C45.129 19.2078 45.2561 19.2078 45.2833 19.2998Z" fill="#F5F5F5"/>
<path d="M38.5525 32.7613L38.8712 33.8392L39.8926 33.4224C39.9796 33.3869 40.059 33.4886 40.0057 33.5678L39.3818 34.4952L40.3367 35.0535C40.4182 35.101 40.3899 35.2281 40.2962 35.2347L39.1995 35.3131L39.3688 36.426C39.3833 36.521 39.2687 36.5775 39.2053 36.5066L38.4615 35.6771L37.7178 36.5066C37.6543 36.5774 37.5399 36.5209 37.5543 36.426L37.7236 35.3131L36.6268 35.2347C36.5332 35.2281 36.5049 35.101 36.5864 35.0535L37.5412 34.4952L36.9174 33.5678C36.8641 33.4886 36.9434 33.3869 37.0305 33.4224L38.0518 33.8392L38.3706 32.7613C38.3982 32.6693 38.5254 32.6693 38.5525 32.7613Z" fill="#F5F5F5"/>
<path d="M40.7486 24.1266L40.4594 25.0342L39.5455 25.0416C39.4272 25.0427 39.3781 25.2007 39.4734 25.2742L40.2086 25.8426L39.9328 26.7547C39.8972 26.8729 40.0256 26.9705 40.1218 26.8985L40.8654 26.3421L41.609 26.8985C41.7053 26.9705 41.8336 26.8727 41.798 26.7547L41.5223 25.8426L42.2574 25.2742C42.3527 25.2006 42.3036 25.0427 42.1853 25.0416L41.2714 25.0342L40.9823 24.1266C40.9447 24.0091 40.786 24.0091 40.7486 24.1266Z" fill="#F5F5F5"/>
</svg>
