<svg width="50" height="51" viewBox="0 0 50 51" fill="none" xmlns="http://www.w3.org/2000/svg">
<g id="Property 1=bahamas" clip-path="url(#clip0_38_8903)">
<g id="Group">
<path id="Vector" d="M49.9999 20.2726H0V10.2151C0 9.73899 0.386034 9.35295 0.862108 9.35295H49.1379C49.614 9.35295 50 9.73899 50 10.2151L49.9999 20.2726Z" fill="#82AFFF"/>
<path id="Vector_2" d="M49.1378 42.1117H0.862108C0.386034 42.1117 0 41.7256 0 41.2496V31.1922H49.9999V41.2496C49.9999 41.7257 49.6139 42.1117 49.1378 42.1117Z" fill="#82AFFF"/>
</g>
<path id="Vector_3" d="M49.9999 20.2724H0V31.1913H49.9999V20.2724Z" fill="#FFE15A"/>
<path id="Vector_4" d="M0.317968 41.9032L20.1266 26.1791C20.4143 25.9508 20.4143 25.5138 20.1266 25.2854L0.317968 9.56143C0.128027 9.71954 0 9.94864 0 10.215V41.2495C0 41.516 0.128027 41.7451 0.317968 41.9032Z" fill="#464655"/>
</g>
<defs>
<clipPath id="clip0_38_8903">
<rect width="50" height="50" fill="white" transform="translate(0 0.732178)"/>
</clipPath>
</defs>
</svg>
