<svg width="50" height="50" viewBox="0 0 50 50" fill="none" xmlns="http://www.w3.org/2000/svg">
<g id="Property 1=barbados">
<path id="Vector" d="M16.3462 41.3461H0.845529C0.378611 41.3461 0 40.9609 0 40.4858V9.5142C0 9.03909 0.378611 8.65384 0.845529 8.65384H16.3462V41.3461Z" fill="#41479B"/>
<path id="Vector_2" d="M32.6923 8.65384H16.3461V41.3461H32.6923V8.65384Z" fill="#FFE15A"/>
<path id="Vector_3" d="M49.1545 41.3461H33.6539V8.65384H49.1545C49.6214 8.65384 50 9.03909 50 9.5142V40.4858C50 40.961 49.6214 41.3461 49.1545 41.3461Z" fill="#41479B"/>
<path id="Vector_4" d="M31.7308 20.3347C31.7308 20.3347 29.3896 20.3347 27.6337 22.151H28.8042C28.8042 22.151 27.6702 24.2699 27.085 27.9024L25.8779 27.6985V22.1329L27.0484 22.5293L25 17.3077L22.9515 22.5293L24.122 22.1256V27.6984L22.9149 27.9023C22.3296 24.2699 21.1957 22.1509 21.1957 22.1509H22.3661C20.6104 20.3347 18.2692 20.3347 18.2692 20.3347C21.1956 23.9671 21.1956 30.0213 21.1956 30.0213L24.1219 29.5169V33.6538H25.8778V29.5169L28.8041 30.0213C28.8043 30.0214 28.8043 23.9673 31.7308 20.3347Z" fill="#464655"/>
</g>
</svg>
