<svg width="30" height="31" viewBox="0 0 30 31" fill="none" xmlns="http://www.w3.org/2000/svg">
<g clip-path="url(#clip0_58_1704)">
<path d="M20.0006 6.05362H29.4833C29.769 6.05362 30.0006 6.28388 30.0006 6.56784V25.079C30.0006 25.363 29.769 25.5932 29.4833 25.5932H20.0006V6.05362Z" fill="#FF4B55"/>
<path d="M20.001 6.05386H10.0008V25.5935H20.001V6.05386Z" fill="#FFE15A"/>
<path d="M0.517815 6.05362H10.0006V25.5932H0.517815C0.23217 25.5932 0.000549316 25.3629 0.000549316 25.0789V6.56778C0.000549316 6.28382 0.23217 6.05362 0.517815 6.05362Z" fill="#41479B"/>
<path d="M16.8335 19.3474L17.0908 19.1389L15.9183 17.7093L15.661 17.9178L16.8335 19.3474Z" fill="#FFCD5A"/>
<path d="M16.0473 18.6517L16.5619 18.2349L16.0462 17.6055L15.5315 18.0223L16.0473 18.6517Z" fill="#FFBE5A"/>
<path d="M14.484 17.9179L14.2267 17.7094L13.0542 19.1389L13.3115 19.3475L14.484 17.9179Z" fill="#FFCD5A"/>
<path d="M14.6123 18.0224L14.0977 17.6056L13.5819 18.235L14.0966 18.6518L14.6123 18.0224Z" fill="#FFBE5A"/>
<path d="M14.6572 18.2458L13.8273 19.8958L14.9891 20.7208V18.4108L14.6572 18.2458Z" fill="#FFE15A"/>
<path d="M15.3211 18.2458L16.1509 19.8958L14.9891 20.7208V18.4108L15.3211 18.2458Z" fill="#FFCD5A"/>
<path d="M12.6655 18.2457V13.9557H13.1634C13.1634 13.9557 13.1634 16.7607 13.1634 17.2557C13.1634 17.7507 12.6655 18.2457 12.6655 18.2457Z" fill="#FFBE5A"/>
<path d="M12.3334 19.0708V13.9557H12.8313C12.8313 13.9557 12.8313 17.5857 12.8313 18.0807C12.8312 18.5757 12.3334 19.0708 12.3334 19.0708Z" fill="#FFCD5A"/>
<path d="M12.0015 19.7308V13.9557H12.4995C12.4995 13.9557 12.4995 18.2458 12.4995 18.7408C12.4995 19.2357 12.0015 19.7308 12.0015 19.7308Z" fill="#FFE15A"/>
<path d="M13.1633 14.1207C13.1633 14.1207 13.1633 16.472 13.1633 17.2558C13.1633 18.0808 14.3667 17.9708 14.9891 18.5757C15.6115 17.9707 16.8148 18.0807 16.8148 17.2558C16.8148 16.472 16.8148 14.1207 16.8148 14.1207H13.1633Z" fill="#FF4B55"/>
<path d="M13.1633 15.9358C13.1633 16.4581 13.1633 16.9649 13.1633 17.2558C13.1633 18.0808 14.3667 17.9708 14.9891 18.5758C15.6115 17.9707 16.8148 18.0808 16.8148 17.2557C16.8148 16.9649 16.8148 16.4581 16.8148 15.9357L13.1633 15.9358Z" fill="#41479B"/>
<path d="M14.9888 18.0807L14.4909 17.7507V17.5857L14.6569 17.4208V16.4307L14.1589 16.1007L14.6569 15.4407H14.8228L14.9888 15.6058L15.1548 15.4407H15.3208L15.8187 16.1007L15.3208 16.4307V17.4208L15.4867 17.5857V17.7507L14.9888 18.0807Z" fill="#FFE15A"/>
<path d="M14.3249 14.2857C14.3249 14.2857 13.661 14.4508 13.661 15.1108C13.661 15.7708 14.3249 16.1008 14.3249 16.1008L14.6568 15.6058C13.6609 15.2757 14.3249 14.2857 14.3249 14.2857Z" fill="#FFE15A"/>
<path d="M15.6527 14.2857C15.6527 14.2857 16.3166 14.4508 16.3166 15.1108C16.3166 15.7708 15.6527 16.1008 15.6527 16.1008L15.3208 15.6058C16.3166 15.2757 15.6527 14.2857 15.6527 14.2857Z" fill="#FFE15A"/>
<path d="M13.329 15.9358L13.6609 16.1007L13.9929 15.9358L13.6609 15.7708L13.329 15.9358Z" fill="#FFE15A"/>
<path d="M15.9847 15.9358L16.3167 16.1007L16.6487 15.9358L16.3167 15.7708L15.9847 15.9358Z" fill="#FFE15A"/>
<path d="M14.9888 14.3682L15.1095 14.4911L15.2822 14.489L15.2802 14.6608L15.4038 14.7807L15.2802 14.9007L15.2822 15.0724L15.1095 15.0704L14.9888 15.1933L14.8682 15.0704L14.6954 15.0724L14.6975 14.9007L14.5739 14.7807L14.6975 14.6608L14.6954 14.489L14.8682 14.4911L14.9888 14.3682Z" fill="#FFE15A"/>
<path d="M13.8621 16.6564L13.9817 16.7887L14.1481 16.7231C14.2343 16.6892 14.3152 16.7823 14.2688 16.8621L14.1792 17.0162L14.2934 17.1533C14.3525 17.2243 14.2883 17.3296 14.1977 17.3104L14.0226 17.2732L13.9267 17.4235C13.8771 17.5014 13.7566 17.4732 13.7469 17.3815L13.7283 17.2045L13.5549 17.1604C13.4651 17.1375 13.4548 17.0149 13.5394 16.9775L13.703 16.9052L13.6917 16.7276C13.686 16.6355 13.8001 16.5878 13.8621 16.6564Z" fill="#FFE15A"/>
<path d="M16.0723 17.0325C16.1089 16.8448 16.2647 16.712 16.4462 16.6919C16.409 16.672 16.3694 16.6555 16.3257 16.6471C16.0932 16.6024 15.8682 16.7534 15.8231 16.9845C15.7781 17.2156 15.93 17.4393 16.1625 17.4841C16.2062 17.4925 16.2491 17.492 16.2911 17.4873C16.1302 17.4013 16.0357 17.2202 16.0723 17.0325Z" fill="#FFE15A"/>
<path d="M14.3249 14.1207L14.6568 12.4707L13.993 11.9757L14.159 11.8107H14.4909C14.4909 11.8107 14.6569 11.6457 14.9888 11.6457C15.3208 11.6457 15.6527 11.8107 15.6527 12.3056C15.6527 12.8006 15.8187 14.1206 15.8187 14.1206H14.3249V14.1207V14.1207Z" fill="#FFE15A"/>
<path d="M13.1634 13.4607C12.7967 13.4607 12.4995 13.7562 12.4995 14.1207H13.8274C13.8273 13.7562 13.53 13.4607 13.1634 13.4607Z" fill="#FFAA5A"/>
<path d="M12.9974 14.1207H12.0015V13.0224C12.0015 12.8088 12.1757 12.6357 12.3905 12.6357H12.6084C12.8232 12.6357 12.9974 12.8089 12.9974 13.0224V14.1207Z" fill="#FFBE5A"/>
<path d="M17.3125 18.2458V13.9557H16.8145C16.8145 13.9557 16.8145 16.7608 16.8145 17.2557C16.8145 17.7508 17.3125 18.2458 17.3125 18.2458Z" fill="#FFBE5A"/>
<path d="M17.6447 19.0708V13.9557H17.1468C17.1468 13.9557 17.1468 17.5857 17.1468 18.0807C17.1468 18.5757 17.6447 19.0708 17.6447 19.0708Z" fill="#FFCD5A"/>
<path d="M17.9767 19.7308V13.9557H17.4788C17.4788 13.9557 17.4788 18.2458 17.4788 18.7408C17.4787 19.2357 17.9767 19.7308 17.9767 19.7308Z" fill="#FFE15A"/>
<path d="M16.8149 13.4607C17.1815 13.4607 17.4787 13.7562 17.4787 14.1207H16.1509C16.1509 13.7562 16.4482 13.4607 16.8149 13.4607Z" fill="#FFAA5A"/>
<path d="M16.9808 14.1207H17.9767V13.0224C17.9767 12.8088 17.8025 12.6357 17.5877 12.6357H17.3699C17.155 12.6357 16.9809 12.8089 16.9809 13.0224L16.9808 14.1207Z" fill="#FFBE5A"/>
<path d="M18.9028 16.0001L18.6901 15.8714L16.3658 19.6659L16.5785 19.7946L18.9028 16.0001Z" fill="#FFAA5A"/>
<path d="M16.8758 19.5762L17.2903 19.0606L16.8848 18.7384L16.4702 19.2539L16.8758 19.5762Z" fill="#FFE15A"/>
<path d="M18.9712 16.0429L18.6168 15.8284L18.1189 16.6416L18.4733 16.8561L18.9712 16.0429Z" fill="#FFCD5A"/>
<path d="M13.726 19.6624L11.3832 16.0596L11.2438 16.1492L13.5866 19.752L13.726 19.6624Z" fill="#73AF00"/>
<path d="M12.857 17.7681C12.7975 17.8352 12.758 17.937 12.748 18.0543C12.6662 17.9722 12.5722 17.9199 12.4846 17.9058C12.4615 17.9909 12.4709 18.0976 12.5127 18.2055C12.401 18.1664 12.2915 18.1604 12.2056 18.1868C12.2298 18.3084 12.3294 18.4404 12.4822 18.531C12.6349 18.6217 12.7991 18.6461 12.9182 18.6095L12.9523 18.5876C13.0348 18.4946 13.0797 18.3358 13.0593 18.1601C13.0388 17.9845 12.9585 17.84 12.857 17.7681Z" fill="#73AF00"/>
<path d="M12.9352 18.764C13.0268 18.764 13.1012 18.6901 13.1012 18.5989C13.1012 18.5078 13.0268 18.4339 12.9352 18.4339C12.8435 18.4339 12.7692 18.5078 12.7692 18.5989C12.7692 18.6901 12.8435 18.764 12.9352 18.764Z" fill="#FF4B55"/>
<path d="M12.2259 16.7981C12.1664 16.8652 12.1269 16.967 12.117 17.0843C12.0351 17.0022 11.9411 16.9499 11.8536 16.9358C11.8305 17.0209 11.8399 17.1276 11.8816 17.2355C11.7699 17.1964 11.6605 17.1904 11.5745 17.2168C11.5987 17.3384 11.6984 17.4704 11.8511 17.561C12.0038 17.6517 12.168 17.6761 12.2872 17.6395L12.3213 17.6176C12.4037 17.5246 12.4487 17.3658 12.4283 17.1901C12.4078 17.0145 12.3275 16.8699 12.2259 16.7981Z" fill="#73AF00"/>
<path d="M12.3046 17.7941C12.3963 17.7941 12.4706 17.7202 12.4706 17.6291C12.4706 17.538 12.3963 17.4641 12.3046 17.4641C12.213 17.4641 12.1386 17.538 12.1386 17.6291C12.1386 17.7202 12.213 17.7941 12.3046 17.7941Z" fill="#FF4B55"/>
<path d="M11.5953 15.8282C11.5358 15.8953 11.4963 15.997 11.4863 16.1143C11.4045 16.0322 11.3105 15.9799 11.2229 15.9659C11.1999 16.051 11.2092 16.1577 11.251 16.2655C11.1393 16.2264 11.0298 16.2204 10.9439 16.2468C10.9681 16.3685 11.0677 16.5005 11.2205 16.591C11.3732 16.6817 11.5374 16.7061 11.6565 16.6696L11.6906 16.6477C11.7731 16.5546 11.818 16.3958 11.7976 16.2202C11.777 16.0445 11.6969 15.9 11.5953 15.8282Z" fill="#73AF00"/>
<path d="M11.6736 16.8243C11.7653 16.8243 11.8396 16.7504 11.8396 16.6593C11.8396 16.5681 11.7653 16.4942 11.6736 16.4942C11.5819 16.4942 11.5076 16.5681 11.5076 16.6593C11.5076 16.7504 11.5819 16.8243 11.6736 16.8243Z" fill="#FF4B55"/>
<path d="M13.6742 19.2546L13.2596 18.739L12.8541 19.0613L13.2686 19.5769L13.6742 19.2546Z" fill="#FFE15A"/>
<path d="M14.1596 11.3161H13.9932V12.4711H14.1596V11.3161Z" fill="#FFE15A"/>
<path d="M14.3247 11.4809H13.8268V11.6459H14.3247V11.4809Z" fill="#FFE15A"/>
<path d="M13.9933 11.9757L14.4912 12.347V11.8107H14.1593L13.9933 11.9757Z" fill="#FF875A"/>
<path d="M14.1591 11.3157V11.4807H14.3251V11.6457H14.1591V11.8107H14.4911C14.4911 11.8107 14.6571 11.6457 14.989 11.6457C15.3209 11.6457 15.6529 11.8107 15.6529 12.3057C15.6529 12.8007 15.8189 14.1207 15.8189 14.1207H16.1508C16.1508 13.7561 16.4481 13.4607 16.8147 13.4607C16.8723 13.4607 16.9273 13.4703 16.9807 13.4841V13.1307C16.9807 12.8574 17.2036 12.6357 17.4786 12.6357C17.7536 12.6357 17.9765 12.8574 17.9765 13.1307V13.9558V14.1208V17.0347L18.1909 16.6847L18.12 16.6419L18.618 15.8286L18.6888 15.8715L18.7951 15.9359L18.9724 16.0431L18.4745 16.8564L18.4036 16.8135L17.9765 17.511V19.731C17.9765 19.731 17.5802 19.3359 17.4954 18.8988C17.4347 18.8214 17.3649 18.7226 17.3034 18.6104L17.1134 18.9206L17.29 19.0609L16.8755 19.5765L16.7654 19.489L16.5778 19.7955L16.3651 19.6667L16.5693 19.3332L16.4702 19.2544L16.6114 19.0788L16.1758 18.5478L16.0471 18.652L15.6598 18.1796C15.5568 18.2208 15.4549 18.2661 15.3569 18.3178L16.1506 19.8961L14.9888 20.7211L13.8269 19.8961L14.6207 18.3178C14.5621 18.2869 14.5026 18.2576 14.4417 18.2309L14.0965 18.652L13.9678 18.5478L13.5322 19.0788L13.6734 19.2544L13.5324 19.3664L13.7251 19.6627L13.5857 19.7522L13.4021 19.47L13.2681 19.5764L12.8536 19.0609L13.0398 18.9129L12.9411 18.761C12.9388 18.7611 12.9365 18.7611 12.9341 18.7611C12.8799 18.7611 12.8267 18.7371 12.7951 18.6884C12.7817 18.6678 12.7744 18.6452 12.7712 18.6223C12.7399 18.6205 12.7083 18.616 12.6754 18.6082C12.6137 18.7213 12.5434 18.8208 12.4824 18.8988C12.3976 19.336 12.0012 19.731 12.0012 19.731V17.6262C11.951 17.6105 11.9005 17.5906 11.8507 17.5611C11.698 17.4705 11.5983 17.3385 11.5741 17.2169C11.609 17.2062 11.6478 17.2008 11.689 17.2008C11.7494 17.2008 11.815 17.2124 11.8813 17.2356C11.8597 17.1797 11.8471 17.1243 11.8429 17.0719L11.6797 16.8209C11.6773 16.8209 11.6751 16.821 11.6727 16.821C11.6185 16.821 11.5653 16.7969 11.5337 16.7483C11.5203 16.7276 11.513 16.705 11.5097 16.6822C11.4178 16.6767 11.3172 16.6487 11.2201 16.5912C11.0674 16.5005 10.9677 16.3686 10.9435 16.247C10.9784 16.2363 11.0172 16.2309 11.0584 16.2309C11.1187 16.2309 11.1843 16.2424 11.2507 16.2657C11.2089 16.1577 11.1995 16.0511 11.2226 15.966C11.3101 15.98 11.4041 16.0323 11.486 16.1145C11.4959 15.9972 11.5354 15.8954 11.5949 15.8283C11.6965 15.9002 11.7767 16.0447 11.7971 16.2204C11.8101 16.3321 11.7944 16.4348 11.7616 16.5203C11.7812 16.5328 11.799 16.5485 11.8124 16.5693C11.8454 16.62 11.8442 16.681 11.819 16.7314L11.9823 16.9824C11.9886 16.9859 11.9948 16.9901 12.0011 16.994V14.121V13.9559V13.1309C12.0011 12.8575 12.2241 12.6359 12.4991 12.6359C12.774 12.6359 12.997 12.8575 12.997 13.1309V13.4842C13.0503 13.4705 13.1053 13.4609 13.163 13.4609C13.5297 13.4609 13.8269 13.7564 13.8269 14.1208H14.3248L14.6567 12.4708L14.4907 12.3471L14.1588 12.0996V12.4709H13.9928V11.6458H13.8268V11.4808H13.9928V11.3158H14.1594L14.1591 11.3157ZM16.8235 18.8148L16.8848 18.7386L16.9174 18.7645L17.185 18.3276C17.1617 18.2468 17.1467 18.1639 17.1467 18.0808C17.1467 18.0727 17.1467 18.0616 17.1467 18.0518C17.0019 17.8623 16.8148 17.5593 16.8148 17.2557C16.8148 17.6033 16.6002 17.7843 16.3065 17.9234L16.562 18.2351L16.4334 18.3392L16.8235 18.8148ZM13.1705 18.809L13.2592 18.7385L13.3205 18.8148L13.7106 18.3391L13.582 18.2349L13.7932 17.9772C13.4387 17.83 13.1632 17.6497 13.1632 17.2557C13.1632 17.4766 13.064 17.6971 12.9542 17.8741C13.0064 17.9501 13.0457 18.0474 13.0588 18.1601C13.0718 18.2718 13.0561 18.3745 13.0234 18.46C13.043 18.4724 13.0607 18.4882 13.0742 18.509C13.1072 18.5597 13.106 18.6206 13.0808 18.6711L13.1705 18.809ZM14.1591 11.192H13.9931C13.9244 11.192 13.8687 11.2474 13.8687 11.3157V11.3569H13.8272C13.7585 11.3569 13.7028 11.4123 13.7028 11.4806V11.6457C13.7028 11.714 13.7585 11.7694 13.8272 11.7694H13.8687V12.4706C13.8687 12.539 13.9244 12.5944 13.9931 12.5944H14.1591C14.2279 12.5944 14.2836 12.539 14.2836 12.4706V12.3469L14.4164 12.4459L14.5196 12.5228L14.223 13.9969H13.9418C13.8819 13.6233 13.5556 13.3369 13.1632 13.3369C13.1494 13.3369 13.1356 13.3374 13.1217 13.3382V13.1307C13.1217 12.7895 12.8424 12.5119 12.4992 12.5119C12.1561 12.5119 11.8768 12.7895 11.8768 13.1307V13.9557V14.1207V16.0184C11.8319 15.8952 11.7588 15.7921 11.6672 15.7272C11.6454 15.7118 11.6202 15.7043 11.5951 15.7043C11.5605 15.7043 11.5262 15.7186 11.5017 15.7462C11.4634 15.7894 11.4319 15.8421 11.4084 15.9015C11.3539 15.8722 11.2978 15.8523 11.2425 15.8435C11.2358 15.8424 11.2292 15.8419 11.2227 15.8419C11.1673 15.8419 11.1175 15.8787 11.1026 15.9334C11.088 15.9871 11.0831 16.046 11.0877 16.1075C11.0779 16.107 11.0682 16.1068 11.0585 16.1068C11.0046 16.1068 10.9536 16.1141 10.9069 16.1284C10.846 16.1471 10.8092 16.2085 10.8215 16.2706C10.8537 16.4323 10.9789 16.5918 11.1564 16.6971C11.2383 16.7457 11.3273 16.779 11.4175 16.7952C11.4212 16.802 11.4251 16.8087 11.4293 16.8151C11.4702 16.878 11.5343 16.9212 11.6076 16.9374L11.6983 17.0769C11.6952 17.0768 11.6922 17.0768 11.6892 17.0768C11.6353 17.0768 11.5843 17.0841 11.5376 17.0984C11.4767 17.1171 11.4399 17.1785 11.4522 17.2407C11.4844 17.4024 11.6096 17.5618 11.7871 17.6671C11.8155 17.6839 11.845 17.6988 11.8769 17.7123V19.7305C11.8769 19.7806 11.9073 19.8258 11.9538 19.8449C11.9692 19.8511 11.9853 19.8542 12.0013 19.8542C12.0338 19.8542 12.0656 19.8417 12.0895 19.8178C12.1064 19.801 12.4968 19.4076 12.5986 18.9511C12.6405 18.8964 12.6791 18.8413 12.7143 18.7861C12.7544 18.8321 12.8086 18.8638 12.8691 18.8772L12.8745 18.8854L12.7762 18.9636C12.7504 18.9841 12.7339 19.0139 12.7302 19.0466C12.7265 19.0792 12.7361 19.112 12.7567 19.1376L13.1713 19.6532C13.1919 19.6788 13.2219 19.6953 13.2547 19.6989C13.2593 19.6994 13.2639 19.6996 13.2685 19.6996C13.2966 19.6996 13.3241 19.6902 13.3462 19.6726L13.3727 19.6515L13.4815 19.8189C13.4994 19.8464 13.5276 19.8658 13.5599 19.8727C13.5686 19.8746 13.5773 19.8754 13.586 19.8754C13.6098 19.8754 13.6334 19.8687 13.6536 19.8556L13.7341 19.8038L13.7159 19.8401C13.6885 19.8946 13.705 19.9608 13.7548 19.9962L14.9167 20.8212C14.9384 20.8366 14.9637 20.8443 14.9891 20.8443C15.0144 20.8443 15.0397 20.8366 15.0614 20.8212L16.2233 19.9962C16.2731 19.9608 16.2897 19.8947 16.2622 19.8401L15.5241 18.3726C15.5554 18.3579 15.5881 18.3433 15.6222 18.3287L15.9509 18.7296C15.9755 18.7596 16.0113 18.7752 16.0475 18.7752C16.0752 18.7752 16.103 18.766 16.1261 18.7473L16.1584 18.7212L16.4517 19.0789L16.3733 19.1764C16.3527 19.202 16.3432 19.2348 16.3468 19.2674C16.3505 19.3001 16.367 19.3299 16.3928 19.3504L16.4064 19.3612L16.2591 19.6017C16.2233 19.66 16.242 19.7361 16.3007 19.7717L16.5133 19.9004C16.533 19.9123 16.5554 19.9185 16.5781 19.9185C16.588 19.9185 16.5979 19.9173 16.6075 19.9149C16.6396 19.9071 16.6673 19.8871 16.6845 19.859L16.7986 19.6727C16.8215 19.6907 16.8487 19.6994 16.8758 19.6994C16.9123 19.6994 16.9485 19.6834 16.9731 19.6529L17.3877 19.1374C17.4029 19.1184 17.4116 19.0963 17.4141 19.0739C17.5494 19.476 17.8734 19.8023 17.8888 19.8177C17.9125 19.8414 17.9445 19.8541 17.9769 19.8541C17.993 19.8541 18.009 19.851 18.0245 19.8447C18.071 19.8255 18.1014 19.7804 18.1014 19.7303V17.545L18.4493 16.977C18.4578 16.9787 18.4663 16.9796 18.4747 16.9796C18.5168 16.9796 18.5578 16.9584 18.5812 16.9201L19.0791 16.1068C19.0964 16.0788 19.1016 16.0452 19.0937 16.0132C19.0859 15.9814 19.0657 15.9538 19.0375 15.9368L18.8602 15.8295L18.7539 15.7651L18.6829 15.7222C18.6628 15.71 18.6404 15.7042 18.6184 15.7042C18.5764 15.7042 18.5354 15.7254 18.512 15.7637L18.1014 16.4343V14.1203V13.9553V13.1305C18.1014 12.7894 17.8222 12.5118 17.479 12.5118C17.1358 12.5118 16.8566 12.7894 16.8566 13.1305V13.3381C16.8427 13.3373 16.8289 13.3368 16.8151 13.3368C16.4227 13.3368 16.0964 13.6232 16.0365 13.9968H15.9294C15.8902 13.6719 15.7777 12.7052 15.7777 12.3055C15.7777 11.7277 15.3704 11.5218 14.9893 11.5218C14.7071 11.5218 14.5249 11.6287 14.4468 11.6868H14.4427C14.4473 11.6739 14.4498 11.66 14.4498 11.6455V11.4805C14.4498 11.4122 14.3941 11.3568 14.3254 11.3568H14.2839V11.3156C14.2836 11.2474 14.2279 11.192 14.1591 11.192ZM13.0991 17.8739C13.1309 17.8181 13.1587 17.7632 13.1826 17.709C13.2864 17.8474 13.4357 17.9459 13.5946 18.0238L13.4856 18.1568C13.4647 18.1823 13.4549 18.2149 13.4582 18.2476C13.4616 18.2802 13.4778 18.3102 13.5034 18.3309L13.5354 18.3569L13.3136 18.6273C13.301 18.6211 13.2872 18.6171 13.2729 18.6155C13.2683 18.615 13.2637 18.6148 13.2591 18.6148C13.2467 18.6148 13.2345 18.6166 13.2228 18.6202C13.2284 18.558 13.2136 18.4955 13.1788 18.4418C13.1745 18.4353 13.17 18.429 13.1653 18.4229C13.1874 18.3345 13.1934 18.2402 13.1825 18.1459C13.1713 18.0492 13.1427 17.9565 13.0991 17.8739ZM16.4992 17.9626C16.6088 17.899 16.7153 17.8185 16.796 17.7104C16.8596 17.8547 16.9432 17.9859 17.0223 18.093C17.0233 18.1619 17.0328 18.2329 17.051 18.3082L16.8621 18.6169C16.8512 18.6188 16.8404 18.6223 16.8303 18.6273L16.6085 18.3569L16.6405 18.3309C16.6661 18.3102 16.6823 18.2802 16.6856 18.2476C16.689 18.2149 16.6792 18.1823 16.6583 18.1568L16.4992 17.9626ZM14.0967 18.7755C14.1328 18.7755 14.1686 18.76 14.1933 18.73L14.4032 18.4739L13.8351 19.6036C13.8335 19.6007 13.8318 19.5979 13.83 19.5951L13.6985 19.3928L13.7516 19.3507C13.7773 19.3302 13.7939 19.3003 13.7976 19.2677C13.8013 19.2351 13.7917 19.2023 13.7711 19.1767L13.6927 19.0792L13.986 18.7215L14.0183 18.7476C14.0412 18.7665 14.069 18.7755 14.0967 18.7755ZM17.2768 18.8916L17.3039 18.8473C17.3277 18.8822 17.3529 18.9169 17.3793 18.9515C17.3817 18.9619 17.3841 18.9722 17.3868 18.9826C17.3813 18.9758 17.3749 18.9696 17.3679 18.964L17.2768 18.8916Z" fill="#FFAA5A"/>
</g>
<defs>
<clipPath id="clip0_58_1704">
<rect width="30" height="29.8235" fill="white" transform="translate(0 0.911774)"/>
</clipPath>
</defs>
</svg>
