<svg width="67" height="30" viewBox="0 0 67 30" fill="none" xmlns="http://www.w3.org/2000/svg">
<g clip-path="url(#clip0_58_879)">
<path fill-rule="evenodd" clip-rule="evenodd" d="M4.52986 0.130399C4.20361 0.196606 3.87605 0.27652 3.80181 0.307813C3.72782 0.339107 3.53385 0.417986 3.37099 0.483417C0.106921 1.79178 -1.04201 6.16583 1.13665 8.99074C4.03185 12.7451 9.95873 11.5286 11.1448 6.93678C11.3905 5.98506 11.2635 4.24299 10.8975 3.54859C10.8512 3.46066 10.813 3.35721 10.813 3.31816C10.8128 3.27936 10.7103 3.07531 10.5853 2.8648C9.3125 0.72109 6.92549 -0.356583 4.52986 0.130399ZM0.965418 12.5398C0.734585 12.6104 0.336968 12.9688 0.153191 13.2725L0 13.5257V17.1802C0 21.1493 0.0112416 21.3246 0.354745 22.6622C1.37062 26.6196 4.49535 29.489 8.28513 29.9442C8.64615 29.9874 9.58934 30.0112 10.9466 30.0112C13.3454 30.0112 13.2602 30.0308 12.8746 29.5702C12.6743 29.3307 12.2691 28.6876 12.2684 28.6079C12.2681 28.5875 12.2299 28.4988 12.1837 28.4108C11.5066 27.1278 11.298 25.1126 11.298 19.858C11.298 16.3695 11.2941 16.3182 10.9926 15.7051C10.5485 14.8022 9.84423 14.3447 8.4127 14.0302C8.11625 13.9651 7.59446 13.8401 7.25331 13.7527C6.70564 13.6126 5.58964 13.3506 4.79964 13.1768C4.65115 13.1442 4.33588 13.0723 4.09852 13.0172C3.86115 12.9619 3.4366 12.8664 3.1548 12.8046C2.87299 12.7431 2.50883 12.6538 2.34571 12.6065C1.99671 12.5054 1.20357 12.4671 0.965418 12.5398Z" fill="#F37721"/>
<path fill-rule="evenodd" clip-rule="evenodd" d="M50.5039 4.9963C47.3044 5.36872 45.1203 7.38751 44.6793 10.3808C44.5172 11.4794 44.6999 11.5751 46.9612 11.5772C48.898 11.5787 49.0883 11.5273 49.3385 10.9332C49.7181 10.0329 49.9332 9.76941 50.5361 9.46656L50.9525 9.2576H51.6855C53.0397 9.2576 53.6686 9.74225 53.8705 10.9415C53.9306 11.2976 53.6509 12.2519 53.4093 12.5154C53.3536 12.576 53.3082 12.6429 53.3082 12.6644C53.3082 12.7185 53.1152 12.9841 52.7793 13.3916C52.6219 13.5828 52.4157 13.8344 52.321 13.951C52.2261 14.0677 52.0502 14.2717 51.9297 14.4047C51.8092 14.5373 51.6515 14.721 51.5791 14.8123C51.507 14.9035 51.2393 15.2157 50.9847 15.5059C50.73 15.7958 50.495 16.0829 50.4621 16.1436C50.4294 16.2047 50.3102 16.349 50.197 16.4643C49.9615 16.7054 49.7889 16.9068 49.5639 17.2035C49.4771 17.318 49.299 17.5337 49.1681 17.6827C48.795 18.1081 48.6316 18.3052 48.3896 18.6207C48.2659 18.7821 48.0042 19.0942 47.8082 19.3143C47.6118 19.5344 47.3677 19.8212 47.2655 19.9518C47.1633 20.0824 47.0276 20.2505 46.9641 20.3253C46.4611 20.9183 46.2632 21.158 45.8392 21.6882C45.6909 21.8736 45.4481 22.1739 45.2999 22.3554C44.9613 22.7698 44.9611 22.7703 44.9548 23.625C44.9488 24.3967 44.9781 24.5066 45.2586 24.7704C45.5299 25.0254 45.4588 25.0229 52.1106 25.0229C59.035 25.0229 58.5619 25.0451 58.8897 24.704L59.0515 24.5356V23.0586V21.5816L58.9169 21.4032C58.639 21.0352 58.7859 21.051 55.389 21.0215C53.1042 21.0016 52.314 20.9788 52.2983 20.932C52.2868 20.8976 52.4666 20.6555 52.6983 20.3941C53.2789 19.7387 54.2707 18.5669 54.7104 18.0168C54.7846 17.924 55.1365 17.5073 55.4923 17.0912C55.8483 16.6751 56.2002 16.2528 56.2742 16.1532C56.3484 16.0534 56.4862 15.8775 56.5806 15.7624C57.5329 14.5989 58.2241 13.5096 58.6685 12.4707C58.7945 12.1761 58.9846 11.0597 58.9514 10.8078C58.936 10.6888 58.8947 10.3754 58.8596 10.1113C58.411 6.70915 54.7967 4.49665 50.5039 4.9963ZM39.1252 5.01725C37.6068 5.27949 36.5912 7.01509 37.1277 8.43053C38.0685 10.9135 41.7678 10.7416 42.4413 8.18354C42.9372 6.29949 41.216 4.65596 39.1252 5.01725ZM63.4467 5.03691C62.166 5.3188 61.4087 6.34372 61.4626 7.72216C61.4882 8.37647 61.4837 8.36096 61.8521 9.05613C62.6695 10.5985 65.6087 10.5274 66.5477 8.94208C67.7842 6.85475 65.9101 4.49484 63.4467 5.03691ZM38.1812 12.4583C38.1516 12.4679 38.0651 12.4893 37.989 12.5059C37.8092 12.5447 37.656 12.6799 37.5287 12.9122C37.4304 13.0914 37.4257 13.3135 37.4097 18.4873C37.392 24.2113 37.3956 24.3365 37.5781 24.6018C37.8544 25.0032 37.8094 24.9944 39.6796 25.0125C41.5425 25.0304 41.6863 25.0104 41.9548 24.6949L42.0912 24.5346V18.7803C42.0912 15.1314 42.0716 12.9753 42.0379 12.8876C41.9527 12.666 41.8091 12.5485 41.5506 12.4896C41.3355 12.4404 38.32 12.4125 38.1812 12.4583ZM62.4097 12.4942C62.296 12.525 62.1378 12.6285 62.0458 12.7324L61.8829 12.9158V18.7221V24.5284L62 24.6755C62.2573 24.9993 62.3909 25.0205 64.1871 25.0218C66.0212 25.0231 66.1278 25.0055 66.3966 24.6582L66.5477 24.4627V18.7541C66.5477 12.3745 66.5767 12.8638 66.1799 12.571C66.006 12.4428 62.8374 12.3781 62.4097 12.4942Z" fill="white" fill-opacity="0.8"/>
<path d="M19.8994 0.140116L20.4659 0.033823C21.3124 -0.12497 23.0822 0.29684 23.8902 0.850029C24.0385 0.951667 24.3009 1.13063 24.4732 1.24779C25.1084 1.67943 25.8812 2.6777 26.1565 3.42201C26.798 5.15606 26.7444 6.66693 25.9899 8.13719C24.423 11.1889 20.4688 12.1468 17.6954 10.1467C13.6962 7.26227 15.0648 1.04917 19.8994 0.140116Z" fill="#F5912F"/>
<path d="M23.3779 12.8368C23.7556 12.7499 24.5775 12.5588 24.7532 12.5169C25.4433 12.3532 26.2935 12.7745 26.5185 13.3921C26.6566 13.7707 26.6064 20.7923 26.4595 21.6351C26.214 23.0456 25.6412 24.6447 25.0933 25.4495C25.0232 25.5524 24.9095 25.7324 24.8405 25.8499C24.0471 27.1986 22.1191 28.7787 20.5467 29.3697C20.3391 29.4475 20.0842 29.544 19.9805 29.5838C19.1492 29.9019 17.6272 30.0473 15.3434 30.0268C13.3802 30.0093 13.3909 30.0118 13.7069 29.6438C14.1025 29.1832 14.2523 28.9419 14.4881 28.3841C14.8352 27.5632 15.0248 26.8143 15.1251 25.8659C15.157 25.5636 15.2109 25.1361 15.2444 24.9162C15.2851 24.6483 15.3071 23.1936 15.3105 20.5145L15.3157 16.5134L15.4412 16.1692C15.9042 14.9001 16.535 14.425 18.2818 14.0304C18.5782 13.9634 19.1 13.8382 19.4412 13.7524C19.7823 13.6665 20.2069 13.5636 20.3849 13.524C20.5629 13.4842 20.9268 13.4001 21.1937 13.337C21.4609 13.2742 21.8005 13.1981 21.9489 13.1687C22.0972 13.1389 22.4004 13.0704 22.6229 13.0161C22.8454 12.962 23.1852 12.8813 23.3779 12.8368Z" fill="#F5912F"/>
</g>
<defs>
<clipPath id="clip0_58_879">
<rect width="66.9231" height="30" fill="white"/>
</clipPath>
</defs>
</svg>
