<svg width="98" height="23" viewBox="0 0 98 23" fill="none" xmlns="http://www.w3.org/2000/svg">
<g clip-path="url(#clip0_58_975)">
<path d="M0 22.6029V3.95468C0 2.26691 1.30667 1.04244 3.07067 1.04244C4.83467 1.04244 5.86367 1.73741 6.64767 3.27626L11.27 12.5921H11.3353V1.38993H16.513V19.8561C16.513 21.7921 15.0757 22.9504 13.769 22.9504C12.4297 22.9504 11.4497 22.3216 10.0777 19.6245L5.25933 10.1763H5.194V22.5863H0V22.6029ZM25.921 16.7784L23.9773 13.6345L28.1423 10.8216C27.3747 10.3252 26.7703 10.259 26.1823 10.259C24.0917 10.259 22.9483 12.4597 22.9483 14.346C22.9483 16.3151 24.3203 18.3669 26.3783 18.3669C28.2893 18.3669 30.1513 16.6295 30.919 14.7928L34.5613 16.7288C33.1077 20.336 29.8573 22.9504 26.019 22.9504C21.7723 22.9504 18.0483 19.1777 18.0483 14.6108C18.0483 10.0273 21.756 6.27122 26.019 6.27122C29.5797 6.27122 31.9153 8.24029 33.5813 11.3511L25.921 16.7784ZM39.4613 14.6108C39.4613 12.7741 40.768 11.2353 42.5483 11.2353C44.3287 11.2353 45.6353 12.7741 45.6353 14.6108C45.6353 16.4475 44.3287 17.9863 42.5483 17.9863C40.768 17.9863 39.4613 16.4475 39.4613 14.6108ZM34.5613 14.6108C34.5613 19.1942 38.2853 22.9504 42.5483 22.9504C46.8113 22.9504 50.5353 19.1777 50.5353 14.6108C50.5353 10.0273 46.8113 6.27122 42.5483 6.27122C38.2853 6.27122 34.5613 10.0273 34.5613 14.6108ZM51.5807 18.0525H56.399C56.987 18.0525 57.281 17.7547 57.281 17.341C57.281 15.8518 51.744 16.4144 51.744 11.2187C51.744 8.25683 54.243 6.76763 56.6277 6.76763H61.495V10.954H57.575C56.987 10.954 56.546 11.2683 56.546 11.6986C56.546 12.9561 62.3933 13.2705 62.3933 17.4899C62.3933 20.6835 60.4497 22.4209 57.1667 22.4209H51.5643V18.0525H51.5807ZM68.894 15.8187C68.894 17.1755 69.5637 18.0194 70.658 18.0194C71.7523 18.0194 72.422 17.1755 72.422 15.8187V6.78417H77.371V15.8187C77.371 19.9058 75.0353 22.9669 70.658 22.9669C66.297 22.9669 63.945 19.9223 63.945 15.8187V6.78417H68.894V15.8187ZM83.251 9.39856H83.3163C84.0677 7.18129 85.505 6.78417 87.6773 6.78417V11.4835C84.2147 11.6158 83.9043 12.377 83.9043 15.0906V22.4374H78.9063V6.78417H83.251V9.39856ZM88.7227 22.4374V5.64244C88.7227 2.39928 91.2053 0 95.1253 0H98V4.68273H95.5827C94.276 4.68273 93.9493 5.42734 93.9493 6.73453H96.9873V11.4173H93.9493V22.4374H88.7227Z" fill="#FF3399"/>
</g>
<defs>
<clipPath id="clip0_58_975">
<rect width="98" height="23" fill="white"/>
</clipPath>
</defs>
</svg>
