<svg width="107" height="25" viewBox="0 0 107 25" fill="none" xmlns="http://www.w3.org/2000/svg">
<g clip-path="url(#clip0_58_886)">
<mask id="mask0_58_886" style="mask-type:luminance" maskUnits="userSpaceOnUse" x="0" y="0" width="107" height="25">
<path d="M106.852 0H0V25H106.852V0Z" fill="white"/>
</mask>
<g mask="url(#mask0_58_886)">
<path d="M4.25018 9.74634H0V24.9971H4.25018V9.74634Z" fill="#33CC66"/>
<path d="M15.0712 9.74634C15.0799 11.1926 14.5161 12.5835 13.503 13.6149C12.49 14.6464 11.1102 15.2346 9.66512 15.2509C7.09431 15.268 4.63475 16.3027 2.82377 18.1288C1.0128 19.955 -0.00238414 22.4243 4.20462e-06 24.9971H4.25018C4.24387 23.5506 4.80924 22.1602 5.82302 21.1291C6.83682 20.0979 8.21682 19.5096 9.66218 19.4925C12.2327 19.4762 14.6921 18.4416 16.5023 16.6151C18.3125 14.7886 19.3261 12.3189 19.3214 9.74634H15.0712Z" fill="white" fill-opacity="0.8"/>
<path d="M9.66222 -0.00585938C7.09196 0.0112554 4.63299 1.04611 2.82296 2.87245C1.01292 4.69882 -0.000957324 7.16807 0.00298693 9.74039H4.25022C4.24237 8.29387 4.80683 6.90301 5.82031 5.87162C6.83381 4.84026 8.21396 4.25218 9.65927 4.23588C11.1049 4.25141 12.4854 4.83924 13.4991 5.87078C14.5128 6.90234 15.077 8.29364 15.0683 9.74039H19.3185C19.3233 7.16834 18.31 4.69907 16.5005 2.87264C14.6909 1.04621 12.2322 0.0112575 9.66222 -0.00585938Z" fill="#3399FF"/>
<path d="M74.0736 8.55997L72.5207 10.4557C71.85 9.77888 70.9406 9.39299 69.9883 9.38124C69.1912 9.38124 68.7793 9.65499 68.7793 10.1819C68.7793 10.6146 69.0735 10.8442 69.9559 11.1857L71.0529 11.6419C73.2414 12.525 74.2238 13.4228 74.2238 15.0918C74.2462 15.6025 74.1436 16.1108 73.9246 16.5726C73.7057 17.0344 73.3773 17.4356 72.9677 17.7411C72.0577 18.4088 70.948 18.7471 69.8206 18.7007C67.8118 18.7007 66.2617 17.9707 65.144 16.5077L66.6941 14.6356C67.6764 15.6629 68.7529 16.1662 69.8647 16.1662C70.6854 16.1662 71.303 15.8454 71.303 15.2302C71.303 14.7504 70.9824 14.5679 70.1264 14.2029L68.9177 13.6995C66.841 12.8547 65.8381 11.9186 65.8381 10.2526C65.8381 8.13022 67.5263 6.84974 69.9911 6.84974C71.6942 6.8468 73.0443 7.41786 74.0736 8.55997Z" fill="white" fill-opacity="0.8"/>
<path d="M51.7905 7.21181H48.961V8.4334C47.3991 6.48475 43.5078 6.29929 41.39 8.60708C39.3693 10.8059 39.2722 14.7886 41.39 17.0935C43.5078 19.3982 47.3961 19.2129 48.9579 17.2642V18.4858H51.7874L51.7905 7.21181ZM45.9077 15.9513C42.0164 15.9513 42.0105 9.74625 45.9077 9.74625C49.7022 9.74625 49.7168 15.9513 45.9077 15.9513Z" fill="white" fill-opacity="0.8"/>
<path d="M26.5128 22.0093H29.3395V17.2731C30.9042 19.2218 34.7955 19.4072 36.9104 17.1024C39.0252 14.7976 38.9311 10.8149 36.9104 8.61306C34.7927 6.30821 30.9013 6.49365 29.3395 8.44233V7.22073H26.5159L26.5128 22.0093ZM32.3955 9.75517C36.2897 9.75517 36.2838 15.9603 32.3955 15.9603C28.5865 15.9603 28.6042 9.75517 32.4014 9.75517H32.3955Z" fill="white" fill-opacity="0.8"/>
<path d="M106.852 7.15298H104.022V8.37457C102.457 6.4259 98.5689 6.24046 96.4511 8.54825C94.4304 10.7501 94.3335 14.7298 96.4511 17.0347C98.5689 19.3394 102.457 19.157 104.019 17.2054V18.427H106.849L106.852 7.15298ZM100.969 15.8925C97.0806 15.8925 97.0747 9.6874 100.969 9.6874C104.763 9.6874 104.778 15.8896 100.966 15.8896L100.969 15.8925Z" fill="white" fill-opacity="0.8"/>
<path d="M62.1203 7.13236L59.179 14.5532L56.4171 7.13236H53.164L57.4877 17.7735C57.3526 18.5329 56.7437 19.3777 54.7376 19.4071V22.0712C57.3437 22.2508 59.2938 20.9113 60.2114 18.8067L65.3616 7.12354L62.1203 7.13236Z" fill="white" fill-opacity="0.8"/>
<path d="M94.004 9.92581V6.98222C93.6885 6.93476 93.3699 6.91016 93.051 6.90862C92.3701 6.88778 91.6922 7.00451 91.0574 7.25183C90.4226 7.49914 89.8443 7.87199 89.3568 8.34805C88.8623 8.85076 88.4766 9.44993 88.2235 10.1083C87.9705 10.7666 87.8557 11.47 87.886 12.1747V18.5005H90.9686V12.0246C90.9544 11.7404 90.9986 11.4563 91.0988 11.19C91.1988 10.9236 91.3525 10.6807 91.5502 10.4762C91.7478 10.2717 91.9854 10.11 92.2483 10.0012C92.5109 9.89231 92.7931 9.8386 93.0774 9.84339C93.388 9.84668 93.6978 9.87424 94.004 9.92581Z" fill="white" fill-opacity="0.8"/>
<path d="M81.0859 6.8645C79.9131 6.86669 78.7672 7.21741 77.794 7.87216C76.8205 8.52691 76.0635 9.45619 75.6186 10.5422C75.1737 11.6281 75.061 12.8219 75.2949 13.972C75.5289 15.1221 76.0989 16.1768 76.9326 17.0023C79.3974 19.3719 83.6271 19.101 85.7889 17.2966L84.6123 15.1036C82.9948 16.3488 79.0709 16.7844 78.2651 13.7996H86.333C86.4094 12.6634 86.6037 11.0238 85.7448 9.47843C84.3211 6.88216 81.6741 6.8645 81.0859 6.8645ZM80.9711 9.35477C82.2682 9.35477 83.3036 10.1878 83.3977 11.4948H78.3061C78.7034 10.1878 79.7181 9.35477 80.9711 9.35477Z" fill="white" fill-opacity="0.8"/>
</g>
</g>
<defs>
<clipPath id="clip0_58_886">
<rect width="107" height="25" fill="white"/>
</clipPath>
</defs>
</svg>
