<svg width="69" height="34" viewBox="0 0 69 34" fill="none" xmlns="http://www.w3.org/2000/svg">
<g clip-path="url(#clip0_58_873)">
<path d="M63.9255 7.12231L59.8159 7.12089C59.3676 7.12089 59.0043 7.47972 59.004 7.92242L59.0038 8.48858H59.2889C61.1445 8.48858 61.8347 8.79085 61.8347 10.4601V12.8331L63.9234 12.8338C64.3717 12.8341 64.735 12.4755 64.7353 12.0328L64.7367 7.92407C64.7367 7.48137 64.3736 7.12254 63.9255 7.12231ZM41.4964 13.5013C41.3067 13.2662 40.9481 13.2336 40.5886 13.2336H40.319C39.4232 13.2336 39.0718 13.5065 38.8735 14.3554L36.3842 24.5735C36.0736 25.8293 35.637 26.0587 34.8901 26.0587C33.9754 26.0587 33.6092 25.8432 33.2446 24.5685L30.4252 14.3504C30.1918 13.4947 29.8476 13.2336 28.9515 13.2336H28.7115C28.3498 13.2336 27.9896 13.2666 27.8047 13.5048C27.6196 13.7432 27.6821 14.0992 27.7775 14.4491L30.6268 24.7558C31.1612 26.7283 31.7965 28.3611 34.1703 28.3611C34.6133 28.3611 35.0232 28.3003 35.3641 28.1867C34.6441 30.4228 33.9117 31.4091 31.7519 31.6282C31.3136 31.6642 31.0288 31.7262 30.8701 31.9363C30.7053 32.1543 30.7427 32.4665 30.8016 32.7452L30.861 33.0095C30.9899 33.6207 31.2096 33.9995 31.9043 33.9995C31.9773 33.9995 32.0558 33.9958 32.14 33.9887C35.3651 33.7802 37.093 32.0655 38.1041 28.0703L41.5543 14.4418C41.6362 14.0922 41.6856 13.7362 41.4964 13.5013ZM24.1421 21.3518V23.4146C24.1421 25.0961 23.5108 26.0696 20.2839 26.0696C18.152 26.0696 17.1157 25.3076 17.1157 23.7404C17.1157 22.0217 18.1554 21.3518 20.8238 21.3518H24.1421ZM20.2839 12.7999C18.5247 12.7999 17.4222 13.0178 17.004 13.1005C16.2637 13.2593 15.9541 13.4601 15.9541 14.2915V14.5285C15.9541 14.8544 16.003 15.0801 16.1077 15.2389C16.2296 15.4238 16.4262 15.5176 16.692 15.5176C16.8215 15.5176 16.9718 15.4961 17.151 15.4518C17.574 15.3475 18.9255 15.1317 20.4039 15.1317C23.0592 15.1317 24.1421 15.858 24.1421 17.6385V19.2274H20.7937C16.4894 19.2274 14.4845 20.6613 14.4845 23.7404C14.4845 26.7269 16.5548 28.3717 20.314 28.3717C24.7813 28.3717 26.7733 26.8704 26.7733 23.5034V17.6385C26.7733 14.3827 24.6507 12.7999 20.2839 12.7999ZM11.8456 14.7752C11.8456 17.2271 11.2117 18.5559 7.8674 18.5559H2.71948V12.2278C2.71948 11.3505 3.0499 11.0241 3.93835 11.0241H7.8674C10.387 11.0241 11.8456 11.6381 11.8456 14.7752ZM7.8674 8.48504H3.42828C1.05615 8.48504 -0.00167847 9.52971 -0.00167847 11.8726V26.9194C-0.00167847 27.8243 0.292477 28.1149 1.20907 28.1149H1.50896C2.42532 28.1149 2.71948 27.8243 2.71948 26.9194V21.0653H7.8674C12.438 21.0653 14.5668 19.0665 14.5668 14.7752C14.5668 10.4837 12.438 8.48504 7.8674 8.48504ZM64.3256 2.88191L62.2527 2.8812C62.0265 2.88097 61.8433 2.70003 61.8433 2.47667L61.844 0.404067C61.8442 0.180715 62.0277 0 62.2536 0L64.3266 0.000711816C64.5527 0.000711816 64.736 0.181892 64.736 0.405009L64.7353 2.47762C64.735 2.70097 64.5518 2.88191 64.3256 2.88191ZM68.3928 7.1249L65.3405 7.12372C65.0077 7.12372 64.7379 6.85702 64.7381 6.52835L64.7391 3.47681C64.7393 3.14791 65.0094 2.88144 65.3422 2.88144L68.3943 2.88262C68.7273 2.88262 68.9971 3.14932 68.9971 3.47799L68.9959 6.52977C68.9959 6.85844 68.7259 7.1249 68.3928 7.1249ZM59.8138 12.8326C59.3655 12.8326 59.0024 12.4738 59.0026 12.0311L59.0038 8.48858H58.7046C56.849 8.48858 56.1588 8.79109 56.1588 10.4603V14.3664C56.1586 14.3747 56.1576 14.3829 56.1576 14.3912V15.2473C56.1571 15.277 56.1552 15.3046 56.1552 15.3352V20.793C56.1552 21.4595 56.0252 21.9903 55.7568 22.4026C55.2508 23.1726 54.249 23.5225 52.6463 23.5246C51.0443 23.5225 50.0428 23.1728 49.5367 22.4036C49.2676 21.991 49.1374 21.46 49.1374 20.793V15.3352C49.1374 15.3046 49.1357 15.277 49.1352 15.2473V14.3912C49.1352 14.3829 49.1343 14.3747 49.134 14.3664V10.4603C49.134 8.79109 48.4438 8.48858 46.5882 8.48858H46.004C44.1481 8.48858 43.4582 8.79109 43.4582 10.4603V20.793C43.4582 22.4552 43.8377 23.8624 44.5711 24.9969C45.9875 27.1951 48.7313 28.3658 52.632 28.3658C52.6368 28.3658 52.6415 28.3655 52.6463 28.3655C52.6513 28.3655 52.6559 28.3658 52.6609 28.3658C56.5615 28.3658 59.3053 27.1951 60.7218 24.9969C61.4551 23.8624 61.8347 22.4552 61.8347 20.793V12.8331L59.8138 12.8326Z" fill="#A6C307"/>
</g>
<defs>
<clipPath id="clip0_58_873">
<rect width="69" height="34" fill="white"/>
</clipPath>
</defs>
</svg>
