<svg width="112" height="39" viewBox="0 0 112 39" fill="none" xmlns="http://www.w3.org/2000/svg">
<g clip-path="url(#clip0_58_2467)">
<path d="M23.4453 22.2516L32.704 22.2328L32.368 24.3585L24.6213 31.7892H31.1173L30.744 34.0655H21.1866L21.5786 31.714L28.9893 24.5466H23.072L23.4453 22.2516Z" fill="#FF444C"/>
<path d="M13.3467 18.6209C13.1413 18.414 12.8613 18.2447 12.544 18.113C12.208 17.9813 11.8347 17.8872 11.4613 17.812C10.9947 17.7367 10.5467 17.6991 10.2293 17.6803C9.93067 17.6615 9.744 17.6615 9.744 17.6615H5.69333H2.688L0 34.0655H2.52L3.50933 27.9892L8.4 28.008C8.4 28.008 10.304 28.0833 11.648 27.3684C12.992 26.6536 13.3653 25.0169 13.3653 25.0169C13.3653 25.0169 13.5147 24.415 13.6453 23.6625C13.776 22.8536 13.9253 21.8754 13.9813 21.3486C14.0187 21.1229 14.0373 20.9724 14.0373 20.9724C14.0373 20.9724 14.0747 20.8031 14.0747 20.5397C14.0747 20.1823 14.0187 19.6367 13.7387 19.11C13.608 18.9407 13.496 18.7714 13.3467 18.6209ZM11.4053 21.5179C11.4053 21.5556 11.1813 22.8724 10.8827 24.4338C10.7707 25.0358 10.3227 25.3556 9.8 25.4684C8.94133 25.6565 8.008 25.6189 8.008 25.6189L3.92 25.6001L4.816 20.1447L8.512 20.1635C8.512 20.1635 8.75467 20.1635 9.10933 20.1635C9.50133 20.1635 10.024 20.1823 10.472 20.2387C10.8453 20.2952 11.144 20.3704 11.2373 20.4833C11.368 20.6338 11.4053 20.8407 11.424 21.0288C11.4427 21.2734 11.4053 21.4991 11.4053 21.5179Z" fill="#FF444C"/>
<path d="M45.2294 17.6615H47.656L44.9494 34.0655H42.5227L45.2294 17.6615Z" fill="#FF444C"/>
<path d="M58.1653 22.2516L60.4986 22.2328L61.32 30.5664L64.8853 22.2328H67.76L68.6 30.6041L72.1653 22.2328H74.592L69.4586 34.0655H66.6026L65.7813 25.7882L62.16 34.0655H59.36L58.1653 22.2516Z" fill="#FF444C"/>
<path d="M40.768 22.3456C40.096 22.1199 38.92 22.0823 37.912 22.0823C36.9414 22.1011 36.512 22.1387 36.1387 22.214C36.1387 22.214 34.4214 22.4585 33.4507 23.6813C32.48 24.9041 32.1814 27.5565 32.1814 27.5565C32.1814 27.5565 31.6027 30.4912 31.7707 31.4694C31.9387 32.4476 32.2374 33.3506 33.3387 33.7833C34.44 34.2159 35.3734 34.1971 35.3734 34.1971C35.3734 34.1971 37.3334 34.3476 38.808 34.009C40.2827 33.6704 41.0667 32.6169 41.0667 32.6169C41.0667 32.6169 41.4214 32.1654 41.664 31.6199C41.9067 31.0744 41.9814 30.7169 42 30.6605L42.1494 30.0209H39.6294C39.6294 30.0209 39.4987 31.6951 38.136 31.8456C36.7734 31.9961 36.064 31.9397 35.784 31.9209C35.5227 31.9021 34.0667 31.9773 34.1787 30.7545C34.1787 30.7357 34.1787 30.7169 34.1787 30.6793C34.2347 29.2872 34.4027 28.9298 34.4027 28.9298L42.2987 28.911L42.6347 26.9357C43.064 24.6971 42.784 23.0041 40.768 22.3456ZM40.2267 26.6536H34.8134L35.0187 25.7882C35.0187 25.7882 35.2054 25.111 35.5787 24.8288C35.952 24.5466 36.4374 24.4902 36.8854 24.4526C37.3334 24.4149 38.528 24.3209 39.5174 24.5278C39.8347 24.5843 40.152 24.7724 40.2267 25.0546C40.432 25.6753 40.2267 26.6536 40.2267 26.6536Z" fill="#FF444C"/>
<path d="M34.2347 30.6981C34.2347 30.7169 34.2347 30.7357 34.2347 30.7546C34.2161 30.8486 34.2347 30.6981 34.2347 30.6981Z" fill="#FF444C"/>
<path d="M55.6454 22.3456C54.9734 22.1199 53.7974 22.0823 52.7894 22.0823C51.8187 22.1011 51.3894 22.1387 51.016 22.214C51.016 22.214 49.2987 22.4585 48.328 23.6813C47.3574 24.9041 47.0587 27.5565 47.0587 27.5565C47.0587 27.5565 46.48 30.4912 46.648 31.4694C46.816 32.4476 47.1147 33.3506 48.216 33.7833C49.3174 34.2159 50.2507 34.1971 50.2507 34.1971C50.2507 34.1971 52.2107 34.3476 53.6854 34.009C55.16 33.6516 55.944 32.6169 55.944 32.6169C55.944 32.6169 56.2987 32.1654 56.5414 31.6199C56.784 31.0744 56.8587 30.7169 56.8774 30.6605L57.0267 30.0209H54.5067C54.5067 30.0209 54.376 31.6951 53.0134 31.8456C51.6507 31.9961 50.9414 31.9397 50.6614 31.9397C50.4 31.9209 48.944 31.9961 49.056 30.7734C49.056 30.7545 49.056 30.7357 49.056 30.6981C49.112 29.306 49.28 28.9486 49.28 28.9486L57.176 28.9298L57.512 26.9546C57.9414 24.7159 57.68 23.0041 55.6454 22.3456ZM55.104 26.6536H49.6907L49.896 25.7882C49.896 25.7882 50.0827 25.111 50.456 24.8288C50.8294 24.5466 51.3147 24.4902 51.7627 24.4526C52.2107 24.4149 53.4054 24.3209 54.3947 24.5278C54.712 24.5843 55.0294 24.7724 55.104 25.0546C55.3094 25.6753 55.104 26.6536 55.104 26.6536Z" fill="#FF444C"/>
<path d="M77.3734 22.2516L78.9227 30.9051L83.3094 22.2516L85.7734 22.2704L79.4454 34.6298C79.4454 34.6298 78.3067 36.8684 77.5974 37.4328C76.888 37.9972 76.4587 38.2605 75.88 38.317C75.3014 38.3734 75.0587 38.411 74.5174 38.317L73.92 38.2041L74.2934 36.0031C74.2934 36.0031 75.2827 36.1912 75.8614 35.9467C76.44 35.7209 76.9067 34.7051 76.9067 34.7051L77.2054 34.1972L74.9094 22.214L77.3734 22.2516Z" fill="#FF444C"/>
<path d="M86.688 23.4179H89.2267L89.376 22.4209C89.376 22.4209 89.656 20.6149 90.2533 20.2763C90.44 20.1634 90.7573 20.0694 91.1307 19.9941C91.8027 19.8813 92.6427 19.8625 93.3333 19.8813C94.3973 19.9189 94.7893 19.9377 95.872 20.0506C96.9547 20.1823 96.6747 21.2169 96.6747 21.2169L96.4693 22.7783C96.4693 22.7783 96.376 23.4743 96.1333 23.907C95.9093 24.3021 95.312 24.5654 94.9573 24.6783C94.1173 24.9605 91.2427 25.6941 91.2427 25.6941L88.984 26.3526C88.984 26.3526 87.6027 26.7664 86.8187 27.613C86.0347 28.4783 85.736 29.4565 85.624 29.9833C85.512 30.4912 84.9147 34.0466 84.9147 34.0466H97.104L97.5147 31.6011L87.8827 31.6199L88.0507 30.6229C88.0507 30.6229 88.1627 29.5882 88.5733 29.2496C88.704 29.1367 88.76 29.005 89.544 28.7229C90.0107 28.5535 91.5787 28.1397 91.5787 28.1397L95.2187 27.1427C95.2187 27.1427 97.1973 26.6347 97.9813 25.5248C98.7653 24.4337 99.064 22.3456 99.064 22.3456C99.064 22.3456 99.2693 20.3139 99.12 19.6743C98.952 19.0347 98.3547 18.2823 97.6453 17.9436C96.9173 17.6238 96.1707 17.4169 93.968 17.4545C91.784 17.4922 90.6827 17.5862 89.5813 18.0001C88.4613 18.4139 87.8267 19.1664 87.416 20.2199C86.9493 21.2545 86.688 23.4179 86.688 23.4179Z" fill="white" fill-opacity="0.9"/>
<path d="M109.629 27.9892L111.347 17.6803H108.323L98.896 27.8763L98.4667 30.4536H106.699L106.101 34.0843H108.64L109.237 30.4536H111.571L111.981 27.9892H109.629ZM107.128 27.9892H101.808L108.285 21.0288L107.128 27.9892Z" fill="white" fill-opacity="0.9"/>
<path d="M18.6853 19.0159H26.4506C26.4506 19.0159 28.1866 17.605 29.4186 16.6832C30.6506 15.7803 32.9093 14.3318 32.9093 14.3318L28.5226 12.2625C28.5226 12.2625 24.808 14.5763 23.24 15.6674C21.7093 16.6832 18.6853 19.0159 18.6853 19.0159Z" fill="white" fill-opacity="0.9"/>
<path d="M35.3546 12.8833L31.752 10.4377C31.752 10.4377 35 8.57537 39.3493 6.82587C43.68 5.09518 45.9946 4.36151 45.9946 4.36151L46.7226 7.8229C46.7226 7.8229 42.56 9.23379 40.1706 10.3625C37.7066 11.4348 35.3546 12.8833 35.3546 12.8833Z" fill="white" fill-opacity="0.9"/>
<path d="M49.392 7.07039L48.7573 3.53376C48.7573 3.53376 53.2 2.34861 57.2693 1.57732C61.3387 0.806034 66.7333 0.448608 66.7333 0.448608L64.9413 5.92287C64.9413 5.92287 60.2 5.26445 55.7387 5.88524C52.2853 6.29911 49.392 7.07039 49.392 7.07039Z" fill="white" fill-opacity="0.9"/>
<path d="M67.7787 6.39317L70.784 0.316934C70.784 0.316934 77.3547 0.185251 83.0294 1.06941C88.704 1.95357 93.8934 3.30802 93.7814 3.36446L79.3894 10.9456C79.3894 10.9456 76.0294 8.80109 71.848 7.48426C69.496 6.78822 67.7787 6.39317 67.7787 6.39317Z" fill="white" fill-opacity="0.9"/>
<path d="M81.984 12.6011L85.1387 15.0278H111.123C111.123 15.0278 111.067 14.1813 110.376 12.9773C109.947 12.2249 109.163 11.4348 108.341 10.607C108.043 10.306 106.848 9.36545 105.952 8.78228C103.656 7.27733 102.368 6.69416 99.9973 5.62189L81.984 12.6011Z" fill="white" fill-opacity="0.9"/>
<path d="M20.3654 22.2328C19.3947 22.2328 18.4614 22.6278 17.6774 23.0605L17.808 22.2328H15.232L13.16 34.009H15.7547L16.8934 27.4813C17.136 26.1645 18.1067 24.5278 20.0294 24.5278H21.3734L21.784 22.2328H20.3654Z" fill="#FF444C"/>
</g>
<defs>
<clipPath id="clip0_58_2467">
<rect width="112" height="38" fill="white" transform="translate(0 0.309998)"/>
</clipPath>
</defs>
</svg>
