<svg width="109" height="25" viewBox="0 0 109 25" fill="none" xmlns="http://www.w3.org/2000/svg">
<g clip-path="url(#clip0_58_854)">
<path d="M14.721 12.16C14.7153 10.337 15.117 8.53572 15.8966 6.8878C16.6762 5.23987 17.814 3.78689 19.227 2.635C17.1548 0.932268 14.5561 0.0010102 11.874 0C5.313 0 0 5.44 0 12.16C0 18.878 5.313 24.319 11.874 24.319C14.66 24.319 17.218 23.337 19.242 21.7C17.8269 20.5458 16.6868 19.0906 15.9049 17.4403C15.123 15.79 14.7189 13.9861 14.722 12.16H14.721Z" fill="#E30D17"/>
<path d="M14.721 12.16C14.7153 13.983 15.117 15.7843 15.8966 17.4322C16.6762 19.0801 17.814 20.5331 19.227 21.685C20.64 20.5331 21.7778 19.0801 22.5574 17.4322C23.337 15.7843 23.7387 13.983 23.733 12.16C23.7387 10.337 23.337 8.53573 22.5574 6.88781C21.7778 5.23988 20.64 3.7869 19.227 2.63501C16.487 4.84801 14.721 8.29401 14.721 12.16Z" fill="#EB610A"/>
<path d="M37.663 18.723V18.364H37.526V18.27H37.906V18.364H37.754V18.723H37.663ZM38.393 18.723V18.411L38.287 18.676H38.18L38.074 18.411V18.723H37.967V18.27H38.119L38.226 18.567L38.333 18.27H38.485V18.723H38.393ZM26.596 0C23.81 0 21.252 0.982 19.227 2.619C20.6402 3.77079 21.7782 5.22373 22.558 6.87166C23.3377 8.51959 23.7395 10.3209 23.734 12.144C23.7395 13.9671 23.3377 15.7684 22.558 17.4163C21.7782 19.0643 20.6402 20.5172 19.227 21.669C21.3092 23.3632 23.9116 24.2881 26.596 24.288C33.156 24.288 38.47 18.848 38.47 12.128C38.47 5.41 33.142 0 26.596 0Z" fill="#F69F00"/>
<path d="M73.414 20.872H68.308L71.518 3.45796H76.625L73.414 20.872ZM63.992 3.45796L59.097 15.424L58.517 12.864L56.781 4.99396C56.781 4.99396 56.571 3.41096 54.359 3.41096H46.305L46.2 3.73696C46.2 3.73696 48.674 4.20296 51.57 5.73896L56.044 20.872H61.36L69.52 3.45796H63.992ZM104.261 20.872H108.946L104.84 3.45796H100.734C98.839 3.45796 98.365 4.76096 98.365 4.76096L90.785 20.871H96.102L97.155 18.264H103.682L104.261 20.872ZM98.629 14.679L101.313 8.16096L102.84 14.679H98.629ZM91.155 7.64896L91.892 3.92396C91.892 3.92396 89.628 3.17896 87.259 3.17896C84.733 3.17896 78.679 4.15695 78.679 8.95195C78.679 13.469 85.785 13.515 85.785 15.89C85.785 18.265 79.416 17.846 77.31 16.356L76.573 20.266C76.573 20.266 78.837 21.245 82.363 21.245C85.838 21.245 91.155 19.662 91.155 15.285C91.155 10.768 83.995 10.349 83.995 8.34696C83.995 6.29796 88.996 6.57696 91.155 7.64896Z" fill="white"/>
<path d="M58.518 12.817L56.78 4.99401C56.78 4.99401 56.57 3.41101 54.358 3.41101H46.304L46.199 3.73701C46.199 3.73701 50.094 4.43601 53.779 7.13701C57.359 9.65101 58.517 12.817 58.517 12.817H58.518Z" fill="#F7A823"/>
</g>
<defs>
<clipPath id="clip0_58_854">
<rect width="109" height="25" fill="white"/>
</clipPath>
</defs>
</svg>
