<svg width="111" height="66" viewBox="0 0 111 66" fill="none" xmlns="http://www.w3.org/2000/svg">
<path d="M4.59814 55.1475C5.61149 55.1475 6.35091 55.3462 6.81641 55.7437C7.28548 56.1375 7.52002 56.7033 7.52002 57.4409C7.52002 57.7739 7.46452 58.0908 7.35352 58.3916C7.24609 58.6888 7.07064 58.952 6.82715 59.1812C6.58366 59.4067 6.26318 59.5858 5.86572 59.7183C5.47184 59.8472 4.98844 59.9116 4.41553 59.9116H3.45947V63H2.54639V55.1475H4.59814ZM4.51221 55.9263H3.45947V59.1274H4.31348C4.81478 59.1274 5.23193 59.0737 5.56494 58.9663C5.90153 58.8589 6.15397 58.6852 6.32227 58.4453C6.49056 58.2018 6.57471 57.8796 6.57471 57.4785C6.57471 56.9557 6.4082 56.5672 6.0752 56.313C5.74219 56.0552 5.22119 55.9263 4.51221 55.9263ZM11.2314 57.0166C11.9333 57.0166 12.4543 57.1742 12.7944 57.4893C13.1346 57.8044 13.3047 58.3075 13.3047 58.9985V63H12.6548L12.4829 62.1299H12.4399C12.2752 62.3447 12.1034 62.5256 11.9243 62.6724C11.7453 62.8156 11.5376 62.9248 11.3013 63C11.0685 63.0716 10.7821 63.1074 10.4419 63.1074C10.0838 63.1074 9.76514 63.0448 9.48584 62.9194C9.21012 62.7941 8.9917 62.6043 8.83057 62.3501C8.67301 62.0959 8.59424 61.7736 8.59424 61.3833C8.59424 60.7961 8.82699 60.3449 9.29248 60.0298C9.75798 59.7147 10.467 59.5428 11.4194 59.5142L12.4346 59.4712V59.1113C12.4346 58.6029 12.3254 58.2466 12.1069 58.0425C11.8885 57.8384 11.5806 57.7363 11.1831 57.7363C10.8752 57.7363 10.5815 57.7811 10.3022 57.8706C10.0229 57.9601 9.75798 58.0658 9.50732 58.1875L9.2334 57.5107C9.49837 57.3747 9.80273 57.2583 10.1465 57.1616C10.4902 57.0649 10.8519 57.0166 11.2314 57.0166ZM12.4238 60.0996L11.5269 60.1372C10.7928 60.1659 10.2754 60.2858 9.97461 60.4971C9.67383 60.7083 9.52344 61.0073 9.52344 61.394C9.52344 61.7306 9.62549 61.9795 9.82959 62.1406C10.0337 62.3018 10.304 62.3823 10.6406 62.3823C11.1634 62.3823 11.5913 62.2373 11.9243 61.9473C12.2573 61.6572 12.4238 61.2222 12.4238 60.6421V60.0996ZM14.2124 57.1133H15.1685L16.4683 60.5293C16.5435 60.7298 16.6133 60.9232 16.6777 61.1094C16.7422 61.292 16.7995 61.4674 16.8496 61.6357C16.8997 61.804 16.9391 61.967 16.9678 62.1245H17.0054C17.0555 61.9455 17.1271 61.7109 17.2202 61.4209C17.3133 61.1273 17.4136 60.8283 17.521 60.5239L18.751 57.1133H19.7124L17.1504 63.8647C17.0143 64.2264 16.855 64.5415 16.6724 64.8101C16.4933 65.0786 16.2749 65.2845 16.0171 65.4277C15.7593 65.5745 15.4478 65.6479 15.0825 65.6479C14.9142 65.6479 14.7656 65.6372 14.6367 65.6157C14.5078 65.5978 14.3968 65.5763 14.3037 65.5513V64.8369C14.3825 64.8548 14.4774 64.8709 14.5884 64.8853C14.703 64.8996 14.8211 64.9067 14.9429 64.9067C15.1649 64.9067 15.3564 64.8638 15.5176 64.7778C15.6823 64.6955 15.8237 64.5737 15.9419 64.4126C16.0601 64.2515 16.1621 64.0599 16.248 63.8379L16.5703 63.0107L14.2124 57.1133ZM22.8384 55.1475C23.8517 55.1475 24.5911 55.3462 25.0566 55.7437C25.5257 56.1375 25.7603 56.7033 25.7603 57.4409C25.7603 57.7739 25.7048 58.0908 25.5938 58.3916C25.4863 58.6888 25.3109 58.952 25.0674 59.1812C24.8239 59.4067 24.5034 59.5858 24.106 59.7183C23.7121 59.8472 23.2287 59.9116 22.6558 59.9116H21.6997V63H20.7866V55.1475H22.8384ZM22.7524 55.9263H21.6997V59.1274H22.5537C23.055 59.1274 23.4722 59.0737 23.8052 58.9663C24.1418 58.8589 24.3942 58.6852 24.5625 58.4453C24.7308 58.2018 24.8149 57.8796 24.8149 57.4785C24.8149 56.9557 24.6484 56.5672 24.3154 56.313C23.9824 56.0552 23.4614 55.9263 22.7524 55.9263ZM29.4717 57.0166C30.1735 57.0166 30.6945 57.1742 31.0347 57.4893C31.3748 57.8044 31.5449 58.3075 31.5449 58.9985V63H30.895L30.7231 62.1299H30.6802C30.5155 62.3447 30.3436 62.5256 30.1646 62.6724C29.9855 62.8156 29.7778 62.9248 29.5415 63C29.3088 63.0716 29.0223 63.1074 28.6821 63.1074C28.3241 63.1074 28.0054 63.0448 27.7261 62.9194C27.4504 62.7941 27.2319 62.6043 27.0708 62.3501C26.9132 62.0959 26.8345 61.7736 26.8345 61.3833C26.8345 60.7961 27.0672 60.3449 27.5327 60.0298C27.9982 59.7147 28.7072 59.5428 29.6597 59.5142L30.6748 59.4712V59.1113C30.6748 58.6029 30.5656 58.2466 30.3472 58.0425C30.1287 57.8384 29.8208 57.7363 29.4233 57.7363C29.1154 57.7363 28.8218 57.7811 28.5425 57.8706C28.2632 57.9601 27.9982 58.0658 27.7476 58.1875L27.4736 57.5107C27.7386 57.3747 28.043 57.2583 28.3867 57.1616C28.7305 57.0649 29.0921 57.0166 29.4717 57.0166ZM30.6641 60.0996L29.7671 60.1372C29.033 60.1659 28.5156 60.2858 28.2148 60.4971C27.9141 60.7083 27.7637 61.0073 27.7637 61.394C27.7637 61.7306 27.8657 61.9795 28.0698 62.1406C28.2739 62.3018 28.5443 62.3823 28.8809 62.3823C29.4036 62.3823 29.8315 62.2373 30.1646 61.9473C30.4976 61.6572 30.6641 61.2222 30.6641 60.6421V60.0996ZM34.2788 63H33.3818V54.6426H34.2788V63ZM41.9971 55.1475L39.0752 63H38.1943L41.1216 55.1475H41.9971ZM48.104 55.1475C49.1174 55.1475 49.8568 55.3462 50.3223 55.7437C50.7913 56.1375 51.0259 56.7033 51.0259 57.4409C51.0259 57.7739 50.9704 58.0908 50.8594 58.3916C50.752 58.6888 50.5765 58.952 50.333 59.1812C50.0895 59.4067 49.769 59.5858 49.3716 59.7183C48.9777 59.8472 48.4943 59.9116 47.9214 59.9116H46.9653V63H46.0522V55.1475H48.104ZM48.0181 55.9263H46.9653V59.1274H47.8193C48.3206 59.1274 48.7378 59.0737 49.0708 58.9663C49.4074 58.8589 49.6598 58.6852 49.8281 58.4453C49.9964 58.2018 50.0806 57.8796 50.0806 57.4785C50.0806 56.9557 49.9141 56.5672 49.5811 56.313C49.248 56.0552 48.7271 55.9263 48.0181 55.9263ZM54.7373 57.0166C55.4391 57.0166 55.9601 57.1742 56.3003 57.4893C56.6405 57.8044 56.8105 58.3075 56.8105 58.9985V63H56.1606L55.9888 62.1299H55.9458C55.7811 62.3447 55.6092 62.5256 55.4302 62.6724C55.2511 62.8156 55.0435 62.9248 54.8071 63C54.5744 63.0716 54.2879 63.1074 53.9478 63.1074C53.5897 63.1074 53.271 63.0448 52.9917 62.9194C52.716 62.7941 52.4976 62.6043 52.3364 62.3501C52.1789 62.0959 52.1001 61.7736 52.1001 61.3833C52.1001 60.7961 52.3328 60.3449 52.7983 60.0298C53.2638 59.7147 53.9728 59.5428 54.9253 59.5142L55.9404 59.4712V59.1113C55.9404 58.6029 55.8312 58.2466 55.6128 58.0425C55.3944 57.8384 55.0864 57.7363 54.689 57.7363C54.381 57.7363 54.0874 57.7811 53.8081 57.8706C53.5288 57.9601 53.2638 58.0658 53.0132 58.1875L52.7393 57.5107C53.0042 57.3747 53.3086 57.2583 53.6523 57.1616C53.9961 57.0649 54.3577 57.0166 54.7373 57.0166ZM55.9297 60.0996L55.0327 60.1372C54.2987 60.1659 53.7812 60.2858 53.4805 60.4971C53.1797 60.7083 53.0293 61.0073 53.0293 61.394C53.0293 61.7306 53.1313 61.9795 53.3354 62.1406C53.5396 62.3018 53.8099 62.3823 54.1465 62.3823C54.6693 62.3823 55.0972 62.2373 55.4302 61.9473C55.7632 61.6572 55.9297 61.2222 55.9297 60.6421V60.0996ZM57.7183 57.1133H58.6743L59.9741 60.5293C60.0493 60.7298 60.1191 60.9232 60.1836 61.1094C60.248 61.292 60.3053 61.4674 60.3555 61.6357C60.4056 61.804 60.445 61.967 60.4736 62.1245H60.5112C60.5614 61.9455 60.633 61.7109 60.7261 61.4209C60.8192 61.1273 60.9194 60.8283 61.0269 60.5239L62.2568 57.1133H63.2183L60.6562 63.8647C60.5202 64.2264 60.3608 64.5415 60.1782 64.8101C59.9992 65.0786 59.7808 65.2845 59.5229 65.4277C59.2651 65.5745 58.9536 65.6479 58.5884 65.6479C58.4201 65.6479 58.2715 65.6372 58.1426 65.6157C58.0137 65.5978 57.9027 65.5763 57.8096 65.5513V64.8369C57.8883 64.8548 57.9832 64.8709 58.0942 64.8853C58.2088 64.8996 58.327 64.9067 58.4487 64.9067C58.6707 64.9067 58.8623 64.8638 59.0234 64.7778C59.1882 64.6955 59.3296 64.5737 59.4478 64.4126C59.5659 64.2515 59.668 64.0599 59.7539 63.8379L60.0762 63.0107L57.7183 57.1133ZM68.7236 60.9106C68.7236 61.3761 68.6073 61.7736 68.3745 62.103C68.1453 62.4289 67.8231 62.6777 67.4077 62.8496C66.9924 63.0215 66.5036 63.1074 65.9414 63.1074C65.6442 63.1074 65.3631 63.0931 65.0981 63.0645C64.8332 63.0358 64.5897 62.9946 64.3677 62.9409C64.1457 62.8872 63.9505 62.821 63.7822 62.7422V61.8667C64.0508 61.9777 64.3784 62.0815 64.7651 62.1782C65.1519 62.2713 65.5565 62.3179 65.979 62.3179C66.3729 62.3179 66.7059 62.266 66.978 62.1621C67.2502 62.0547 67.4561 61.9025 67.5957 61.7056C67.7389 61.505 67.8105 61.2651 67.8105 60.9858C67.8105 60.7173 67.7515 60.4935 67.6333 60.3145C67.5151 60.1318 67.3182 59.9671 67.0425 59.8203C66.7703 59.6699 66.3979 59.5106 65.9253 59.3423C65.5923 59.2241 65.2987 59.0952 65.0444 58.9556C64.7902 58.8123 64.5771 58.6512 64.4053 58.4722C64.2334 58.2931 64.1027 58.0854 64.0132 57.8491C63.9272 57.6128 63.8843 57.3424 63.8843 57.0381C63.8843 56.6191 63.9899 56.2611 64.2012 55.9639C64.416 55.6631 64.7114 55.4339 65.0874 55.2764C65.467 55.1152 65.902 55.0347 66.3926 55.0347C66.8115 55.0347 67.1982 55.0741 67.5527 55.1528C67.9108 55.2316 68.2384 55.3372 68.5356 55.4697L68.251 56.2539C67.9681 56.1357 67.6673 56.0373 67.3486 55.9585C67.0335 55.8797 66.7077 55.8403 66.3711 55.8403C66.0345 55.8403 65.7498 55.8905 65.5171 55.9907C65.2879 56.0874 65.1125 56.2253 64.9907 56.4043C64.869 56.5833 64.8081 56.7964 64.8081 57.0435C64.8081 57.3192 64.8654 57.5483 64.98 57.731C65.0981 57.9136 65.2843 58.0765 65.5386 58.2197C65.7964 58.3594 66.1366 58.5062 66.5591 58.6602C67.021 58.8285 67.4131 59.0075 67.7354 59.1973C68.0576 59.3835 68.3029 59.6126 68.4712 59.8848C68.6395 60.1533 68.7236 60.4953 68.7236 60.9106ZM72.3975 57.0166C73.0993 57.0166 73.6203 57.1742 73.9604 57.4893C74.3006 57.8044 74.4707 58.3075 74.4707 58.9985V63H73.8208L73.6489 62.1299H73.606C73.4412 62.3447 73.2694 62.5256 73.0903 62.6724C72.9113 62.8156 72.7036 62.9248 72.4673 63C72.2345 63.0716 71.9481 63.1074 71.6079 63.1074C71.2498 63.1074 70.9312 63.0448 70.6519 62.9194C70.3761 62.7941 70.1577 62.6043 69.9966 62.3501C69.839 62.0959 69.7603 61.7736 69.7603 61.3833C69.7603 60.7961 69.993 60.3449 70.4585 60.0298C70.924 59.7147 71.633 59.5428 72.5854 59.5142L73.6006 59.4712V59.1113C73.6006 58.6029 73.4914 58.2466 73.2729 58.0425C73.0545 57.8384 72.7466 57.7363 72.3491 57.7363C72.0412 57.7363 71.7476 57.7811 71.4683 57.8706C71.189 57.9601 70.924 58.0658 70.6733 58.1875L70.3994 57.5107C70.6644 57.3747 70.9688 57.2583 71.3125 57.1616C71.6562 57.0649 72.0179 57.0166 72.3975 57.0166ZM73.5898 60.0996L72.6929 60.1372C71.9588 60.1659 71.4414 60.2858 71.1406 60.4971C70.8398 60.7083 70.6895 61.0073 70.6895 61.394C70.6895 61.7306 70.7915 61.9795 70.9956 62.1406C71.1997 62.3018 71.4701 62.3823 71.8066 62.3823C72.3294 62.3823 72.7573 62.2373 73.0903 61.9473C73.4233 61.6572 73.5898 61.2222 73.5898 60.6421V60.0996ZM78.9287 57.8115H77.4624V63H76.5708V57.8115H75.5288V57.3818L76.5708 57.0864V56.6943C76.5708 56.2002 76.6442 55.7992 76.791 55.4912C76.9378 55.1797 77.1509 54.9505 77.4302 54.8037C77.7095 54.6569 78.0496 54.5835 78.4507 54.5835C78.6763 54.5835 78.8822 54.6032 79.0684 54.6426C79.2581 54.682 79.4246 54.7267 79.5679 54.7769L79.3369 55.4805C79.2152 55.4411 79.0773 55.4053 78.9233 55.373C78.7729 55.3372 78.619 55.3193 78.4614 55.3193C78.1213 55.3193 77.8688 55.4303 77.7041 55.6523C77.543 55.8708 77.4624 56.2145 77.4624 56.6836V57.1133H78.9287V57.8115ZM82.2803 57.0059C82.7816 57.0059 83.2113 57.1169 83.5693 57.3389C83.9274 57.5609 84.2013 57.8724 84.3911 58.2734C84.5809 58.6709 84.6758 59.1364 84.6758 59.6699V60.2231H80.6099C80.6206 60.9142 80.7925 61.4406 81.1255 61.8022C81.4585 62.1639 81.9276 62.3447 82.5327 62.3447C82.9051 62.3447 83.2345 62.3107 83.521 62.2427C83.8075 62.1746 84.1047 62.0744 84.4126 61.9419V62.7261C84.1154 62.8586 83.82 62.9552 83.5264 63.0161C83.2363 63.077 82.8926 63.1074 82.4951 63.1074C81.9294 63.1074 81.4352 62.9928 81.0127 62.7637C80.5938 62.5309 80.2679 62.1908 80.0352 61.7432C79.8024 61.2956 79.686 60.7477 79.686 60.0996C79.686 59.4658 79.7917 58.918 80.0029 58.4561C80.2178 57.9906 80.5186 57.6325 80.9053 57.3818C81.2956 57.1312 81.7539 57.0059 82.2803 57.0059ZM82.2695 57.7363C81.7933 57.7363 81.4137 57.8921 81.1309 58.2036C80.848 58.5151 80.6797 58.9502 80.626 59.5088H83.7412C83.7376 59.1579 83.6821 58.8499 83.5747 58.585C83.4709 58.3164 83.3115 58.1087 83.0967 57.9619C82.8818 57.8115 82.6061 57.7363 82.2695 57.7363ZM89.6816 55.8403C89.2484 55.8403 88.8581 55.9155 88.5107 56.0659C88.167 56.2127 87.8734 56.4276 87.6299 56.7104C87.39 56.9897 87.2056 57.3281 87.0767 57.7256C86.9478 58.123 86.8833 58.5706 86.8833 59.0684C86.8833 59.7272 86.9854 60.3001 87.1895 60.7871C87.3971 61.2705 87.7051 61.6447 88.1133 61.9097C88.5251 62.1746 89.0389 62.3071 89.6548 62.3071C90.0057 62.3071 90.3351 62.2785 90.6431 62.2212C90.9546 62.1603 91.2572 62.0851 91.5508 61.9956V62.7905C91.2643 62.8979 90.9635 62.9767 90.6484 63.0269C90.3333 63.0806 89.9591 63.1074 89.5259 63.1074C88.7274 63.1074 88.0596 62.9427 87.5225 62.6133C86.9889 62.2803 86.5879 61.8112 86.3193 61.2061C86.0544 60.6009 85.9219 59.8866 85.9219 59.063C85.9219 58.4686 86.0042 57.9261 86.1689 57.4355C86.3372 56.9414 86.5807 56.5153 86.8994 56.1572C87.2217 55.7992 87.6156 55.5234 88.0811 55.3301C88.5501 55.1331 89.0872 55.0347 89.6924 55.0347C90.0898 55.0347 90.473 55.0741 90.8418 55.1528C91.2106 55.2316 91.5436 55.3444 91.8408 55.4912L91.4756 56.2646C91.2249 56.1501 90.9492 56.0516 90.6484 55.9692C90.3512 55.8833 90.029 55.8403 89.6816 55.8403ZM95.3213 57.0166C96.0231 57.0166 96.5441 57.1742 96.8843 57.4893C97.2244 57.8044 97.3945 58.3075 97.3945 58.9985V63H96.7446L96.5728 62.1299H96.5298C96.3651 62.3447 96.1932 62.5256 96.0142 62.6724C95.8351 62.8156 95.6274 62.9248 95.3911 63C95.1584 63.0716 94.8719 63.1074 94.5317 63.1074C94.1737 63.1074 93.855 63.0448 93.5757 62.9194C93.3 62.7941 93.0815 62.6043 92.9204 62.3501C92.7629 62.0959 92.6841 61.7736 92.6841 61.3833C92.6841 60.7961 92.9168 60.3449 93.3823 60.0298C93.8478 59.7147 94.5568 59.5428 95.5093 59.5142L96.5244 59.4712V59.1113C96.5244 58.6029 96.4152 58.2466 96.1968 58.0425C95.9784 57.8384 95.6704 57.7363 95.2729 57.7363C94.965 57.7363 94.6714 57.7811 94.3921 57.8706C94.1128 57.9601 93.8478 58.0658 93.5972 58.1875L93.3232 57.5107C93.5882 57.3747 93.8926 57.2583 94.2363 57.1616C94.5801 57.0649 94.9417 57.0166 95.3213 57.0166ZM96.5137 60.0996L95.6167 60.1372C94.8826 60.1659 94.3652 60.2858 94.0645 60.4971C93.7637 60.7083 93.6133 61.0073 93.6133 61.394C93.6133 61.7306 93.7153 61.9795 93.9194 62.1406C94.1235 62.3018 94.3939 62.3823 94.7305 62.3823C95.2533 62.3823 95.6812 62.2373 96.0142 61.9473C96.3472 61.6572 96.5137 61.2222 96.5137 60.6421V60.0996ZM101.906 57.0059C102.024 57.0059 102.148 57.013 102.277 57.0273C102.406 57.0381 102.52 57.0542 102.621 57.0757L102.508 57.9028C102.411 57.8778 102.304 57.8581 102.186 57.8438C102.067 57.8294 101.956 57.8223 101.853 57.8223C101.616 57.8223 101.392 57.8706 101.181 57.9673C100.973 58.0604 100.791 58.1965 100.633 58.3755C100.476 58.5509 100.352 58.764 100.263 59.0146C100.173 59.2617 100.128 59.5374 100.128 59.8418V63H99.2314V57.1133H99.9727L100.069 58.1982H100.107C100.229 57.9798 100.375 57.7811 100.547 57.6021C100.719 57.4194 100.918 57.2744 101.144 57.167C101.373 57.0596 101.627 57.0059 101.906 57.0059ZM105.827 63.1074C105.082 63.1074 104.492 62.8532 104.055 62.3447C103.621 61.8363 103.405 61.0807 103.405 60.0781C103.405 59.0648 103.627 58.3003 104.071 57.7847C104.515 57.2655 105.106 57.0059 105.843 57.0059C106.155 57.0059 106.427 57.047 106.66 57.1294C106.892 57.2118 107.093 57.3228 107.261 57.4624C107.43 57.5985 107.571 57.7542 107.686 57.9297H107.75C107.736 57.8187 107.721 57.6665 107.707 57.4731C107.693 57.2798 107.686 57.1222 107.686 57.0005V54.6426H108.577V63H107.857L107.723 62.1621H107.686C107.575 62.3376 107.433 62.4969 107.261 62.6401C107.093 62.7834 106.891 62.8979 106.654 62.9839C106.422 63.0662 106.146 63.1074 105.827 63.1074ZM105.967 62.3662C106.597 62.3662 107.043 62.1872 107.304 61.8291C107.566 61.471 107.696 60.9393 107.696 60.2339V60.0728C107.696 59.3244 107.571 58.7497 107.32 58.3486C107.073 57.9476 106.622 57.7471 105.967 57.7471C105.419 57.7471 105.009 57.9583 104.737 58.3809C104.465 58.7998 104.329 59.3727 104.329 60.0996C104.329 60.8229 104.463 61.3815 104.731 61.7754C105.004 62.1693 105.415 62.3662 105.967 62.3662Z" fill="#CACBCC" fill-opacity="0.5"/>
<path d="M73.2891 38.4297C72.8255 38.4297 72.4141 38.5208 72.0547 38.7031C71.7005 38.8802 71.401 39.138 71.1562 39.4766C70.9167 39.8151 70.7344 40.224 70.6094 40.7031C70.4844 41.1823 70.4219 41.7214 70.4219 42.3203C70.4219 43.1276 70.5208 43.8177 70.7188 44.3906C70.9219 44.9583 71.2344 45.3932 71.6562 45.6953C72.0781 45.9922 72.6224 46.1406 73.2891 46.1406C73.7526 46.1406 74.2161 46.0885 74.6797 45.9844C75.1484 45.8802 75.6562 45.7318 76.2031 45.5391V47.5703C75.6979 47.7786 75.2005 47.9271 74.7109 48.0156C74.2214 48.1094 73.6719 48.1562 73.0625 48.1562C71.8854 48.1562 70.9167 47.9141 70.1562 47.4297C69.401 46.9401 68.8411 46.2578 68.4766 45.3828C68.112 44.5026 67.9297 43.4766 67.9297 42.3047C67.9297 41.4401 68.0469 40.6484 68.2812 39.9297C68.5156 39.2109 68.8594 38.5885 69.3125 38.0625C69.7656 37.5365 70.3255 37.1302 70.9922 36.8438C71.6589 36.5573 72.4245 36.4141 73.2891 36.4141C73.8568 36.4141 74.4245 36.487 74.9922 36.6328C75.5651 36.7734 76.112 36.9688 76.6328 37.2188L75.8516 39.1875C75.4245 38.9844 74.9948 38.8073 74.5625 38.6562C74.1302 38.5052 73.7057 38.4297 73.2891 38.4297ZM85.6328 48L84.8047 45.2812H80.6406L79.8125 48H77.2031L81.2344 36.5312H84.1953L88.2422 48H85.6328ZM84.2266 43.25L83.3984 40.5938C83.3464 40.4167 83.276 40.1901 83.1875 39.9141C83.1042 39.6328 83.0182 39.349 82.9297 39.0625C82.8464 38.7708 82.7786 38.5182 82.7266 38.3047C82.6745 38.5182 82.6016 38.7839 82.5078 39.1016C82.4193 39.4141 82.3333 39.7109 82.25 39.9922C82.1667 40.2734 82.1068 40.474 82.0703 40.5938L81.25 43.25H84.2266ZM93.0156 36.5781C94.0521 36.5781 94.9062 36.7031 95.5781 36.9531C96.2552 37.2031 96.7578 37.5807 97.0859 38.0859C97.4141 38.5911 97.5781 39.2292 97.5781 40C97.5781 40.5208 97.4792 40.9766 97.2812 41.3672C97.0833 41.7578 96.8229 42.0885 96.5 42.3594C96.1771 42.6302 95.8281 42.8516 95.4531 43.0234L98.8125 48H96.125L93.3984 43.6172H92.1094V48H89.6875V36.5781H93.0156ZM92.8438 38.5625H92.1094V41.6484H92.8906C93.6927 41.6484 94.2656 41.5156 94.6094 41.25C94.9583 40.9792 95.1328 40.5833 95.1328 40.0625C95.1328 39.5208 94.9453 39.1354 94.5703 38.9062C94.2005 38.6771 93.625 38.5625 92.8438 38.5625ZM109.727 42.1797C109.727 43.4661 109.479 44.5417 108.984 45.4062C108.495 46.2656 107.784 46.9141 106.852 47.3516C105.919 47.7839 104.797 48 103.484 48H100.25V36.5781H103.836C105.034 36.5781 106.073 36.7917 106.953 37.2188C107.833 37.6406 108.516 38.2682 109 39.1016C109.484 39.9297 109.727 40.9557 109.727 42.1797ZM107.211 42.2422C107.211 41.3984 107.086 40.7057 106.836 40.1641C106.591 39.6172 106.227 39.2135 105.742 38.9531C105.263 38.6927 104.669 38.5625 103.961 38.5625H102.672V46H103.711C104.893 46 105.771 45.6849 106.344 45.0547C106.922 44.4245 107.211 43.487 107.211 42.2422Z" fill="white" fill-opacity="0.8"/>
<path d="M15.4688 36.5781L12.5625 48H9.80469L8.25781 42C8.22656 41.8854 8.1849 41.7109 8.13281 41.4766C8.08073 41.2422 8.02604 40.987 7.96875 40.7109C7.91146 40.4297 7.85938 40.1667 7.8125 39.9219C7.77083 39.6719 7.74219 39.474 7.72656 39.3281C7.71094 39.474 7.67969 39.6693 7.63281 39.9141C7.59115 40.1589 7.54167 40.4193 7.48438 40.6953C7.43229 40.9714 7.38021 41.2292 7.32812 41.4688C7.27604 41.7083 7.23438 41.8906 7.20312 42.0156L5.66406 48H2.91406L0 36.5781H2.38281L3.84375 42.8125C3.88542 43 3.93229 43.224 3.98438 43.4844C4.04167 43.7448 4.09635 44.0182 4.14844 44.3047C4.20573 44.5859 4.25521 44.8594 4.29688 45.125C4.34375 45.3854 4.3776 45.612 4.39844 45.8047C4.42448 45.6068 4.45833 45.3776 4.5 45.1172C4.54167 44.8516 4.58594 44.5833 4.63281 44.3125C4.6849 44.0365 4.73698 43.7812 4.78906 43.5469C4.84115 43.3125 4.88802 43.1224 4.92969 42.9766L6.59375 36.5781H8.88281L10.5469 42.9766C10.5833 43.1172 10.625 43.3073 10.6719 43.5469C10.724 43.7812 10.776 44.0365 10.8281 44.3125C10.8802 44.5885 10.9271 44.8594 10.9688 45.125C11.0156 45.3854 11.0495 45.612 11.0703 45.8047C11.1068 45.5443 11.1562 45.2292 11.2188 44.8594C11.2865 44.4844 11.3568 44.112 11.4297 43.7422C11.5078 43.3724 11.5755 43.0625 11.6328 42.8125L13.0859 36.5781H15.4688ZM23.8984 48L23.0703 45.2812H18.9062L18.0781 48H15.4688L19.5 36.5312H22.4609L26.5078 48H23.8984ZM22.4922 43.25L21.6641 40.5938C21.612 40.4167 21.5417 40.1901 21.4531 39.9141C21.3698 39.6328 21.2839 39.349 21.1953 39.0625C21.112 38.7708 21.0443 38.5182 20.9922 38.3047C20.9401 38.5182 20.8672 38.7839 20.7734 39.1016C20.6849 39.4141 20.599 39.7109 20.5156 39.9922C20.4323 40.2734 20.3724 40.474 20.3359 40.5938L19.5156 43.25H22.4922ZM27.9531 48V36.5781H30.375V46H35.0078V48H27.9531ZM37 48V36.5781H39.4219V46H44.0547V48H37ZM52.625 48H46.0469V36.5781H52.625V38.5625H48.4688V41.0703H52.3359V43.0547H48.4688V46H52.625V48ZM59.4219 48H57V38.5938H53.8984V36.5781H62.5234V38.5938H59.4219V48Z" fill="url(#paint0_linear_58_863)"/>
<path d="M50.2 6.40002H46.6C44.1699 6.40002 42.2 8.36998 42.2 10.8V14.4H45.8281C45.5558 13.9294 45.4 13.3829 45.4 12.8C45.4 11.0327 46.8327 9.60002 48.6 9.60002C49.1829 9.60002 49.7293 9.75585 50.2 10.0281V6.40002ZM51.8 12.8V14.4H53.4C54.2836 14.4 55 13.6837 55 12.8C55 11.9164 54.2836 11.2 53.4 11.2C52.5163 11.2 51.8 11.9164 51.8 12.8ZM56.1718 14.4C56.4442 13.9294 56.6 13.3829 56.6 12.8C56.6 11.0327 55.1674 9.60002 53.4 9.60002C52.8171 9.60002 52.2707 9.75585 51.8 10.0281V6.40002H63.4C65.8301 6.40002 67.8 8.36998 67.8 10.8V14.4H56.1718ZM52.9314 16L55.5658 18.6343C55.8781 18.9467 55.8781 19.4533 55.5658 19.7658C55.2533 20.0781 54.7467 20.0781 54.4343 19.7658L51.8 17.1314V25.6H63.4C65.8301 25.6 67.8 23.6301 67.8 21.2V16H52.9314ZM50.2 25.6V17.1314L47.5657 19.7658C47.2533 20.0781 46.7467 20.0781 46.4343 19.7658C46.1219 19.4533 46.1219 18.9467 46.4343 18.6343L49.0686 16H42.2V21.2C42.2 23.6301 44.1699 25.6 46.6 25.6H50.2ZM50.2 12.8C50.2 11.9164 49.4836 11.2 48.6 11.2C47.7163 11.2 47 11.9164 47 12.8C47 13.6837 47.7163 14.4 48.6 14.4H50.2V12.8Z" fill="url(#paint1_linear_58_863)"/>
<defs>
<linearGradient id="paint0_linear_58_863" x1="49.455" y1="59.1875" x2="15.0494" y2="8.66434" gradientUnits="userSpaceOnUse">
<stop stop-color="#FABE00"/>
<stop offset="1" stop-color="#F8661F"/>
</linearGradient>
<linearGradient id="paint1_linear_58_863" x1="62.296" y1="31" x2="32.2253" y2="10.4399" gradientUnits="userSpaceOnUse">
<stop stop-color="#FABE00"/>
<stop offset="1" stop-color="#F8661F"/>
</linearGradient>
</defs>
</svg>
